<?xml version="1.0" standalone="no"?>
<!DOCTYPE svg PUBLIC "-//W3C//DTD SVG 20010904//EN"
 "http://www.w3.org/TR/2001/REC-SVG-20010904/DTD/svg10.dtd">
<svg version="1.0" xmlns="http://www.w3.org/2000/svg"
 width="500.000000pt" height="500.000000pt" viewBox="0 0 500.000000 500.000000"
 preserveAspectRatio="xMidYMid meet">
<metadata>
Created by potrace 1.14, written by Peter Selinger 2001-2017
</metadata>
<g transform="translate(0.000000,500.000000) scale(0.100000,-0.100000)"
fill="#000000" stroke="none">
<path d="M2040 4299 c0 -27 3 -30 28 -27 21 2 28 9 30 31 3 24 0 27 -27 27
-28 0 -31 -3 -31 -31z"/>
<path d="M1952 4253 c2 -10 10 -18 18 -18 8 0 16 8 18 18 2 12 -3 17 -18 17
-15 0 -20 -5 -18 -17z"/>
<path d="M1707 4254 c-14 -15 -6 -34 14 -34 14 0 19 5 17 17 -3 18 -20 27 -31
17z"/>
<path d="M2057 4213 c-4 -3 -7 -17 -7 -30 0 -19 5 -23 30 -23 27 0 30 3 30 30
0 25 -4 30 -23 30 -13 0 -27 -3 -30 -7z"/>
<path d="M2520 4195 c0 -21 5 -25 30 -25 25 0 30 4 30 25 0 21 -5 25 -30 25
-25 0 -30 -4 -30 -25z"/>
<path d="M1492 4193 c5 -26 38 -29 38 -4 0 15 -6 21 -21 21 -14 0 -19 -5 -17
-17z"/>
<path d="M2308 4192 l-58 -3 0 -59 0 -60 65 0 65 0 0 59 c0 33 -3 61 -7 63 -5
2 -34 2 -65 0z"/>
<path d="M1350 4175 c0 -8 7 -15 15 -15 8 0 15 7 15 15 0 8 -7 15 -15 15 -8 0
-15 -7 -15 -15z"/>
<path d="M1600 4160 c0 -15 5 -20 18 -18 9 2 17 10 17 18 0 8 -8 16 -17 18
-13 2 -18 -3 -18 -18z"/>
<path d="M1730 4160 c0 -11 7 -20 15 -20 8 0 15 9 15 20 0 11 -7 20 -15 20 -8
0 -15 -9 -15 -20z"/>
<path d="M1840 4130 l0 -50 45 0 45 0 0 50 0 50 -45 0 -45 0 0 -50z"/>
<path d="M2630 4139 c0 -14 5 -19 17 -17 26 5 29 38 4 38 -15 0 -21 -6 -21
-21z"/>
<path d="M1420 4110 c0 -27 3 -30 30 -30 27 0 30 3 30 30 0 27 -3 30 -30 30
-27 0 -30 -3 -30 -30z"/>
<path d="M1530 4117 c0 -31 5 -35 35 -29 18 3 25 11 25 28 0 20 -5 24 -30 24
-25 0 -30 -4 -30 -23z"/>
<path d="M2760 4125 c0 -8 9 -15 20 -15 11 0 20 7 20 15 0 8 -9 15 -20 15 -11
0 -20 -7 -20 -15z"/>
<path d="M2440 4099 c0 -27 3 -30 28 -27 21 2 28 9 30 31 3 24 0 27 -27 27
-28 0 -31 -3 -31 -31z"/>
<path d="M3242 4113 c2 -10 10 -18 18 -18 8 0 16 8 18 18 2 12 -3 17 -18 17
-15 0 -20 -5 -18 -17z"/>
<path d="M2090 4065 l0 -45 45 0 45 0 0 45 0 45 -45 0 -45 0 0 -45z"/>
<path d="M1037 4073 c-4 -3 -7 -17 -7 -30 0 -19 5 -23 30 -23 27 0 30 3 30 30
0 25 -4 30 -23 30 -13 0 -27 -3 -30 -7z"/>
<path d="M1705 4070 c-8 -14 3 -30 21 -30 8 0 14 9 14 20 0 21 -24 28 -35 10z"/>
<path d="M1337 4064 c-14 -15 -6 -34 14 -34 14 0 19 5 17 17 -3 18 -20 27 -31
17z"/>
<path d="M1572 4013 l3 -48 45 0 45 0 3 48 3 47 -51 0 -51 0 3 -47z"/>
<path d="M2200 4040 c0 -13 7 -20 20 -20 13 0 20 7 20 20 0 13 -7 20 -20 20
-13 0 -20 -7 -20 -20z"/>
<path d="M2520 4017 c0 -24 2 -46 4 -48 3 -3 23 -3 45 -1 l41 4 0 44 0 44 -45
0 -45 0 0 -43z"/>
<path d="M2822 4014 l3 -47 44 0 44 0 0 44 0 44 -47 3 -47 3 3 -47z"/>
<path d="M1820 4030 c0 -13 7 -20 20 -20 13 0 20 7 20 20 0 13 -7 20 -20 20
-13 0 -20 -7 -20 -20z"/>
<path d="M1162 4023 c5 -26 38 -29 38 -4 0 15 -6 21 -21 21 -14 0 -19 -5 -17
-17z"/>
<path d="M2000 4015 c0 -21 5 -25 30 -25 25 0 30 4 30 25 0 21 -5 25 -30 25
-25 0 -30 -4 -30 -25z"/>
<path d="M2980 3995 l0 -45 45 0 45 0 0 45 0 45 -45 0 -45 0 0 -45z"/>
<path d="M2670 4015 c0 -8 9 -15 20 -15 11 0 20 7 20 15 0 8 -9 15 -20 15 -11
0 -20 -7 -20 -15z"/>
<path d="M3670 4009 c0 -25 33 -22 38 4 2 12 -3 17 -17 17 -15 0 -21 -6 -21
-21z"/>
<path d="M3350 4005 c0 -8 7 -15 15 -15 8 0 15 7 15 15 0 8 -7 15 -15 15 -8 0
-15 -7 -15 -15z"/>
<path d="M1700 3985 c0 -8 9 -15 20 -15 11 0 20 7 20 15 0 8 -9 15 -20 15 -11
0 -20 -7 -20 -15z"/>
<path d="M1490 3970 c0 -13 7 -20 20 -20 13 0 20 7 20 20 0 13 -7 20 -20 20
-13 0 -20 -7 -20 -20z"/>
<path d="M2260 3970 c0 -15 5 -20 18 -18 9 2 17 10 17 18 0 8 -8 16 -17 18
-13 2 -18 -3 -18 -18z"/>
<path d="M900 3950 c0 -27 3 -30 30 -30 27 0 30 3 30 30 0 27 -3 30 -30 30
-27 0 -30 -3 -30 -30z"/>
<path d="M1390 3950 c0 -27 3 -30 30 -30 27 0 30 3 30 30 0 27 -3 30 -30 30
-27 0 -30 -3 -30 -30z"/>
<path d="M1930 3965 c0 -8 7 -15 15 -15 8 0 15 7 15 15 0 8 -7 15 -15 15 -8 0
-15 -7 -15 -15z"/>
<path d="M2360 3950 c0 -27 3 -30 30 -30 27 0 30 3 30 30 0 27 -3 30 -30 30
-27 0 -30 -3 -30 -30z"/>
<path d="M2720 3949 c0 -28 3 -31 26 -26 16 3 28 0 31 -9 7 -18 43 -18 43 0 0
8 -10 16 -22 18 -15 2 -24 11 -26 26 -3 16 -10 22 -28 22 -20 0 -24 -5 -24
-31z"/>
<path d="M3497 3974 c-14 -15 -6 -34 14 -34 14 0 19 5 17 17 -3 18 -20 27 -31
17z"/>
<path d="M1110 3940 c0 -13 7 -20 20 -20 13 0 20 7 20 20 0 13 -7 20 -20 20
-13 0 -20 -7 -20 -20z"/>
<path d="M1684 3933 c4 -16 9 -36 12 -45 4 -14 -1 -18 -20 -18 -22 0 -26 -4
-26 -30 0 -27 3 -30 30 -30 17 0 30 5 31 13 2 23 28 -88 35 -145 8 -74 -2 -88
-67 -88 l-49 0 0 -45 c0 -25 3 -45 8 -45 4 0 8 -28 9 -62 0 -35 3 -97 5 -138
l3 -75 40 -1 c39 0 40 -1 37 -32 -2 -17 -9 -53 -15 -79 -12 -45 -13 -46 -48
-46 -35 0 -109 42 -78 44 8 0 28 2 44 2 29 2 30 4 30 47 l0 45 -45 0 c-42 0
-45 -2 -46 -28 -1 -15 -4 -30 -8 -34 -4 -4 -30 16 -58 44 -43 43 -51 57 -52
90 -1 32 -4 38 -23 38 -12 0 -25 4 -29 8 -4 4 2 7 14 7 19 0 22 6 22 44 l0 45
-42 3 c-37 3 -43 7 -54 38 -7 19 -13 63 -13 98 l-1 62 -45 0 -45 0 0 -45 c0
-45 0 -45 35 -45 27 0 35 -4 35 -18 0 -13 -8 -18 -27 -17 -24 0 -28 -4 -29
-30 -1 -49 -5 -71 -11 -57 -2 6 -18 12 -34 12 -26 0 -29 -4 -29 -30 0 -26 4
-30 26 -30 24 0 26 -3 20 -31 -3 -17 -6 -71 -6 -120 l0 -89 -50 0 c-50 0 -50
0 -50 -33 0 -32 -2 -33 -30 -29 -28 4 -30 2 -30 -27 0 -28 3 -31 30 -31 22 0
30 5 30 18 0 14 9 17 47 17 l48 0 -3 38 c-2 22 1 37 7 37 6 0 11 -15 11 -32 1
-18 7 -59 14 -90 12 -50 12 -58 0 -58 -8 0 -14 -9 -14 -21 0 -15 5 -19 18 -15
15 5 22 -6 41 -71 15 -51 19 -79 12 -81 -19 -6 -13 -43 7 -40 31 5 20 -35 -13
-47 -16 -5 -37 -16 -45 -24 -13 -13 -15 -12 -18 2 -2 9 -10 17 -19 17 -11 0
-14 -7 -11 -24 5 -27 -7 -36 -48 -36 -20 0 -24 -5 -24 -27 0 -16 -9 -42 -19
-60 -11 -17 -21 -46 -23 -64 l-3 -32 -87 72 c-80 65 -89 77 -103 126 -9 30
-15 78 -13 107 3 52 4 53 36 56 31 3 32 5 32 48 0 38 -3 44 -21 44 -15 0 -19
4 -15 16 3 9 6 20 6 25 0 5 9 9 20 9 14 0 20 7 20 21 0 11 -4 17 -10 14 -15
-9 -12 1 15 55 14 28 32 50 40 50 10 0 15 10 15 30 0 17 7 44 15 59 11 23 19
27 40 24 24 -5 25 -4 25 46 0 32 -4 50 -10 46 -6 -4 -8 10 -4 37 3 24 1 61 -3
83 l-9 40 -59 0 -60 0 -3 -67 -3 -68 60 0 c46 0 59 -3 55 -13 -3 -8 -15 -13
-27 -13 -20 1 -22 -4 -22 -54 l0 -55 -43 3 -42 4 0 -51 c0 -40 3 -51 16 -51 9
0 14 -6 11 -12 -2 -7 -14 -12 -25 -10 -22 3 -32 -23 -12 -30 14 -4 -42 -138
-57 -138 -8 0 -13 -14 -13 -37 l0 -38 -47 0 c-40 0 -48 -3 -47 -17 1 -10 -2
-18 -6 -18 -12 0 -62 99 -55 110 3 6 -1 13 -9 16 -21 8 -56 89 -55 123 2 23 2
24 6 4 4 -20 11 -23 49 -23 24 0 44 5 44 10 0 6 16 10 35 10 32 0 35 2 35 30
0 28 -3 30 -35 30 -19 0 -35 5 -35 11 0 8 -13 9 -41 5 l-41 -7 37 68 c20 37
44 75 52 83 9 8 13 9 9 3 -5 -9 2 -13 23 -13 30 0 31 1 31 46 0 40 -2 45 -15
34 -13 -11 -13 -8 -4 19 14 39 4 55 -10 17 -7 -16 -18 -26 -31 -26 -11 0 -20
-6 -20 -14 0 -8 -3 -22 -7 -32 -5 -13 -3 -15 7 -9 14 9 15 10 -32 -64 -21 -34
-29 -40 -34 -28 -3 10 -17 17 -31 17 -21 0 -24 -4 -21 -27 2 -20 8 -27 21 -25
21 3 21 -1 3 -53 l-14 -40 -11 28 c-17 43 -49 177 -56 235 -7 51 -6 52 19 52
25 0 26 3 26 50 l0 50 -45 0 -45 0 0 -50 c0 -35 4 -50 13 -50 10 0 14 -17 16
-57 2 -91 18 -186 47 -286 4 -13 0 -16 -18 -15 -20 3 -23 -1 -23 -42 l0 -45
45 -6 c28 -4 34 -7 18 -7 -28 -2 -28 -3 -28 -67 l0 -65 58 0 c54 0 59 -2 76
-31 10 -17 40 -60 67 -96 27 -35 49 -66 49 -68 0 -3 -10 -4 -22 -2 -19 2 -23
-3 -23 -28 0 -25 4 -30 28 -33 23 -3 27 0 27 22 0 14 1 26 3 26 1 0 32 -27 67
-61 36 -34 92 -80 124 -103 l59 -41 -36 -3 c-37 -3 -37 -4 -37 -48 l0 -44 45
0 c45 0 45 0 45 35 0 37 9 42 38 24 12 -8 17 -20 14 -35 -3 -17 0 -24 11 -24
8 0 17 6 19 12 5 13 110 -76 146 -122 19 -25 19 -25 -23 -129 -39 -95 -43
-102 -56 -84 -21 29 -124 110 -169 133 -39 20 -40 21 -40 75 l0 55 -65 0 c-62
0 -65 -1 -65 -24 0 -23 -2 -24 -30 -13 -24 9 -28 15 -24 34 5 17 2 23 -10 23
-9 0 -16 -4 -16 -10 0 -5 5 -10 11 -10 5 0 8 -4 4 -9 -3 -6 -16 -6 -34 0 -25
9 -29 16 -34 62 -3 29 -14 78 -24 110 -19 55 -19 57 -1 57 15 0 18 8 18 45 l0
45 -42 0 c-38 0 -46 5 -96 60 -30 33 -64 65 -76 72 -19 10 -19 8 4 -17 23 -24
23 -27 5 -23 -12 2 -21 -3 -23 -14 -2 -13 3 -18 18 -18 12 0 19 4 15 9 -3 5
-1 12 4 15 19 12 101 -113 101 -154 0 -11 4 -20 10 -20 11 0 36 -85 43 -147 3
-24 2 -43 -2 -43 -4 0 -31 15 -61 34 -52 33 -55 37 -60 83 l-5 48 -47 0 c-32
0 -53 6 -65 18 -16 16 -15 17 20 17 l37 0 0 45 0 45 -49 0 c-46 0 -50 -2 -53
-27 -3 -27 -3 -26 -30 14 -15 23 -30 54 -34 70 -4 15 -13 33 -19 38 -7 6 -20
31 -30 58 -25 66 -38 59 -15 -8 10 -30 15 -55 9 -55 -5 0 -9 -13 -9 -30 0 -24
4 -30 23 -30 16 0 29 -13 49 -53 16 -29 50 -80 78 -114 27 -34 50 -67 50 -72
0 -6 5 -11 11 -11 5 0 30 -17 55 -37 41 -35 44 -41 44 -85 0 -47 -1 -48 -30
-48 -29 0 -30 -2 -30 -45 l0 -45 45 0 45 0 0 45 c0 43 1 45 30 45 20 0 30 5
30 15 0 18 20 20 21 3 0 -7 1 -29 2 -48 2 -34 3 -35 50 -38 43 -3 47 -1 48 20
1 18 2 19 6 5 3 -12 10 -16 24 -12 19 6 50 -9 132 -63 33 -22 37 -29 37 -68
l0 -44 49 0 c42 0 53 -4 73 -29 48 -57 53 -82 30 -174 -47 -189 -48 -222 -26
-904 l7 -193 125 0 124 0 -7 98 c-3 53 -19 201 -35 327 -38 304 -45 428 -31
545 19 151 23 162 94 218 55 44 113 70 134 60 4 -2 6 -13 5 -25 -3 -21 0 -23
47 -23 l51 0 0 44 c0 24 -4 46 -10 48 -5 2 13 20 41 41 49 36 195 94 207 83 3
-3 0 -6 -6 -6 -7 0 -12 -15 -12 -33 0 -33 1 -33 43 -31 23 1 41 5 40 8 -2 3
-3 21 -3 40 0 30 -2 34 -22 29 -13 -3 -21 -3 -18 0 3 3 38 15 79 26 l73 20 5
-20 c8 -28 58 -23 58 6 0 11 8 21 18 23 13 3 17 -3 17 -28 l0 -31 62 3 c61 3
62 3 63 33 0 44 19 46 23 3 3 -38 4 -38 48 -38 44 0 44 0 44 36 l0 36 55 -4
c31 -3 58 -1 60 3 6 9 -38 16 -152 25 -61 4 -83 10 -83 20 0 10 -15 14 -60 14
-53 0 -60 -2 -60 -20 0 -11 -4 -20 -10 -20 -5 0 -10 11 -10 25 0 21 -5 25 -31
25 -28 0 -31 -3 -27 -25 6 -31 5 -32 -52 -36 -42 -4 -44 -2 -45 21 0 20 -6 26
-29 28 -27 3 -28 2 -24 -32 l4 -35 -63 -15 c-34 -9 -64 -16 -67 -16 -3 0 11
23 30 51 19 28 34 55 34 60 0 5 11 9 25 9 23 0 25 4 25 45 l0 45 -45 0 -45 0
0 -45 c0 -33 4 -45 15 -45 11 0 10 -8 -8 -37 l-22 -38 -3 43 -3 42 -45 0 -44
0 0 -45 0 -45 40 0 c22 0 40 -4 40 -8 0 -17 -47 -49 -100 -66 -30 -11 -83 -31
-117 -47 -35 -15 -65 -23 -68 -18 -4 5 -24 9 -45 9 -34 0 -41 -4 -46 -24 -3
-14 -3 -29 0 -35 4 -5 -3 -15 -14 -21 -24 -13 -25 -7 -4 53 16 46 16 47 60 47
l44 0 0 45 c0 43 -1 45 -30 45 l-29 0 15 42 c18 52 41 77 120 134 53 38 65 43
97 37 37 -6 42 -1 38 33 -1 7 13 18 31 25 18 7 36 14 41 17 4 2 7 -10 7 -27 0
-31 1 -31 51 -31 l52 0 -5 50 c-4 42 -3 48 9 38 10 -8 17 -8 25 0 7 7 8 12 2
13 -5 1 16 9 46 19 53 17 55 17 62 -1 4 -11 12 -19 17 -19 17 0 23 20 11 35
-10 12 -9 15 3 15 8 0 29 3 46 6 24 5 31 3 31 -10 0 -12 10 -16 45 -16 44 0
45 1 46 33 0 17 3 26 6 20 3 -8 23 -13 49 -13 36 0 44 3 44 19 0 11 9 21 23
25 35 9 47 7 47 -9 0 -9 9 -15 21 -15 17 0 20 4 15 23 -5 21 -1 25 42 35 26 6
57 14 70 18 20 6 22 3 22 -35 0 -34 3 -41 20 -41 18 0 20 -7 20 -65 l0 -65 65
0 65 0 0 65 0 65 -40 0 -40 0 0 44 c0 41 -2 45 -27 48 -25 4 -26 5 -8 13 92
38 176 81 226 115 49 34 67 40 109 40 l50 0 0 65 0 66 -62 -3 -63 -3 -2 -55
c-1 -30 -2 -60 -2 -66 -3 -48 -485 -228 -499 -186 -5 16 -32 15 -32 -1 0 -10
-14 -13 -55 -9 -51 4 -55 3 -55 -17 0 -18 -6 -21 -48 -21 -26 0 -53 -5 -59
-11 -6 -6 -16 -10 -22 -8 -7 3 7 20 29 40 33 30 42 34 49 21 10 -17 31 -8 31
15 0 9 -6 13 -15 9 -23 -8 -18 8 9 33 l24 23 4 -28 c3 -27 7 -29 51 -32 l47
-3 0 50 0 51 -35 0 c-38 0 -42 6 -21 33 14 19 36 23 36 7 0 -5 20 -10 45 -10
l45 0 0 39 c0 36 5 43 58 82 60 46 178 171 214 228 12 19 -32 -20 -98 -85 -79
-79 -138 -129 -176 -149 -31 -16 -59 -27 -62 -24 -10 9 6 49 20 49 10 0 14 13
14 40 0 33 3 40 20 40 21 0 28 26 10 32 -7 2 -8 24 -3 63 4 33 9 52 11 43 3
-14 14 -18 48 -18 l44 0 0 50 c0 38 4 50 15 50 9 0 15 9 15 25 0 20 -5 25 -25
25 -21 0 -25 -5 -25 -30 0 -28 -3 -30 -35 -30 l-35 0 0 60 0 60 -46 0 -45 0 3
-47 c3 -47 3 -48 37 -47 l34 1 -6 -61 c-4 -33 -13 -85 -22 -113 -16 -52 -16
-53 -55 -53 l-40 0 0 -41 c0 -32 4 -42 20 -46 19 -5 19 -6 -1 -45 -31 -61 -79
-124 -79 -104 0 14 -8 17 -47 14 -48 -3 -48 -3 -51 -41 -3 -31 1 -39 18 -45
20 -8 18 -12 -37 -62 l-58 -53 -3 32 c-3 32 -4 32 -50 29 l-47 -3 -3 -42 c-3
-39 -1 -43 19 -43 41 0 7 -18 -81 -44 -47 -14 -118 -39 -159 -55 -41 -17 -75
-31 -77 -31 -1 0 -4 19 -6 43 -3 40 -4 42 -36 42 -18 0 -31 4 -29 10 2 5 12
34 22 63 10 32 35 74 61 103 l44 50 0 -46 0 -46 48 3 47 3 3 47 3 47 -43 3
-43 3 45 27 45 28 3 -30 c3 -26 7 -30 33 -30 26 0 29 3 29 30 0 26 -4 30 -27
30 -27 1 -26 2 12 21 22 12 69 37 105 57 55 30 73 35 119 33 l54 -3 -5 57 c-3
31 0 59 5 62 6 3 31 7 56 7 l46 1 3 47 3 47 -38 4 -38 4 38 1 38 2 -3 48 -3
47 -45 0 -45 0 -3 -44 c-2 -24 1 -47 7 -50 12 -8 -22 -87 -51 -118 -12 -13
-32 -23 -45 -23 -17 0 -23 -5 -21 -17 2 -12 -13 -26 -50 -46 -29 -16 -56 -27
-59 -24 -10 10 45 114 81 155 33 37 39 39 71 32 42 -9 45 -6 45 42 l0 38 -45
0 c-42 0 -45 -2 -45 -26 0 -17 -18 -46 -55 -87 -30 -33 -55 -64 -55 -69 0 -4
-13 -8 -30 -8 -25 0 -30 -4 -30 -24 0 -13 6 -26 12 -28 10 -4 10 -10 1 -30 -7
-17 -29 -31 -67 -45 l-56 -21 0 23 c0 17 7 25 23 27 17 2 23 11 25 36 3 30 1
32 -27 32 -26 0 -30 -4 -33 -32 -2 -26 -8 -34 -26 -36 -19 -3 -23 0 -18 15 3
10 8 34 11 54 6 34 10 37 38 35 29 -1 32 2 32 28 -1 24 9 36 60 73 l60 44 3
-26 c3 -24 7 -26 45 -23 l42 3 0 45 c0 31 -4 44 -12 43 -23 -5 -12 11 34 52
30 26 48 35 50 28 3 -7 18 -13 34 -13 27 0 30 3 27 28 -2 15 -8 26 -15 25 -23
-5 -14 8 45 72 32 34 81 96 109 138 34 50 53 71 57 62 8 -22 36 -18 36 5 0 13
-7 20 -18 20 -15 0 -11 13 24 88 24 48 45 101 49 117 3 17 -15 -14 -41 -67
-40 -84 -49 -96 -59 -81 -7 9 -17 13 -23 9 -17 -10 -15 -36 3 -36 19 0 19 -11
1 -35 -11 -15 -24 -19 -51 -16 -37 3 -37 2 -33 -28 2 -17 0 -31 -5 -31 -5 0
-6 -11 -3 -24 4 -15 0 -28 -9 -36 -12 -10 -15 -9 -15 4 0 13 -7 17 -27 14 -36
-4 -46 -46 -13 -55 l21 -6 -23 -24 c-21 -22 -23 -23 -29 -6 -4 10 -8 62 -8
116 l-1 97 30 0 c29 0 30 2 30 45 0 38 -3 45 -20 45 -17 0 -19 4 -14 28 4 15
17 51 30 80 13 28 19 52 15 52 -10 0 -57 -96 -67 -135 -3 -14 -12 -25 -19 -25
-15 0 -31 -239 -20 -310 6 -43 4 -47 -34 -85 -30 -28 -41 -34 -41 -22 0 10 -8
17 -20 17 -21 0 -27 -19 -10 -36 7 -7 -7 -23 -47 -51 -84 -58 -87 -59 -74 -36
13 26 6 33 -36 33 -25 0 -33 -4 -33 -17 0 -10 -3 -29 -7 -42 -5 -20 -3 -23 10
-18 25 9 21 2 -9 -18 l-27 -17 8 28 c4 16 10 54 14 84 4 38 10 55 20 55 19 0
26 24 9 30 -11 4 -14 42 -15 180 l0 175 33 0 c34 0 34 1 34 45 0 45 0 45 -35
45 l-35 0 22 35 c23 34 23 34 26 9 3 -21 8 -25 30 -22 21 2 28 9 30 31 3 24 0
27 -27 27 -23 0 -29 4 -25 15 5 11 21 15 61 15 l54 0 -3 63 -3 62 -62 3 -63 3
0 -72 c0 -60 -5 -80 -26 -116 -14 -25 -28 -43 -30 -40 -2 2 -13 39 -24 83 -22
84 -68 214 -77 214 -3 0 -2 -12 1 -27z m71 -550 c-5 -25 -10 -31 -26 -28 -57
11 -83 145 -28 145 12 0 19 7 19 20 0 12 8 33 18 47 17 27 17 27 20 -62 2 -50
0 -104 -3 -122z m-417 41 c7 -23 12 -55 12 -72 0 -24 4 -30 15 -26 8 4 15 1
15 -5 0 -6 -5 -11 -11 -11 -6 0 -9 -17 -7 -42 3 -42 4 -43 40 -46 30 -3 44
-12 82 -57 25 -29 46 -56 46 -59 0 -3 -25 -6 -55 -6 l-55 0 0 -44 c0 -31 5
-46 14 -48 11 -2 6 -17 -21 -60 -20 -32 -42 -58 -49 -58 -8 0 -14 -16 -16 -42
-3 -43 -3 -42 -30 42 -46 145 -68 253 -50 248 4 -2 8 0 10 5 5 17 1 27 -13 27
-8 0 -15 9 -15 20 0 17 7 20 45 20 l45 0 0 45 0 45 -45 0 c-51 0 -53 4 -33 89
9 38 16 51 30 51 12 0 18 7 18 22 0 31 14 11 28 -38z m251 -376 c31 -31 41
-49 41 -75 0 -26 4 -33 20 -33 25 0 24 -8 -3 -90 -22 -64 -23 -65 -60 -68
l-38 -3 3 -42 c2 -33 7 -42 21 -41 21 2 21 -4 2 -47 l-14 -34 -1 33 c0 30 -3
32 -33 32 -29 0 -33 3 -32 27 0 40 -40 48 -82 16 l-32 -24 -7 26 c-13 51 80
273 118 283 10 2 18 12 18 21 0 15 26 61 35 61 2 0 22 -19 44 -42z m-149 -348
c0 -11 6 -20 13 -20 8 0 12 -16 12 -47 l0 -47 43 3 c23 1 42 0 42 -2 0 -3 -18
-47 -40 -98 l-39 -94 -1 63 c0 47 -3 62 -15 62 -17 0 -51 103 -35 108 18 6 10
32 -10 32 -24 0 -26 17 -3 42 21 24 33 23 33 -2z m-600 -26 c0 -12 3 -31 6
-41 3 -10 -8 -2 -24 17 -33 38 -34 46 -3 46 15 0 21 -7 21 -22z m466 -114 c32
0 44 4 44 15 0 8 5 15 10 15 6 0 10 -9 10 -19 0 -11 3 -26 6 -35 4 -12 0 -16
-15 -16 -19 0 -21 -6 -21 -55 l0 -55 -46 0 -45 0 3 -47 3 -48 43 -3 42 -3 0
40 c0 40 1 41 34 41 37 0 46 -15 46 -76 0 -28 -2 -30 -30 -26 -29 4 -30 3 -30
-37 0 -48 -8 -51 -40 -16 -19 21 -21 25 -7 25 19 0 23 25 5 36 -6 4 -17 -1
-24 -10 -8 -11 -14 -13 -19 -7 -3 6 -34 30 -68 53 -34 23 -65 46 -70 52 -4 6
-6 31 -5 56 l3 45 43 3 42 3 0 49 c0 36 5 52 18 59 14 8 18 5 20 -15 3 -21 8
-24 48 -24z m359 -229 c6 0 -3 -8 -20 -17 -16 -8 -44 -24 -62 -35 l-32 -20 15
38 c14 35 18 38 52 37 20 -1 42 -2 47 -3z"/>
<path d="M1705 3451 c-8 -15 3 -31 21 -31 9 0 14 7 12 17 -4 20 -24 28 -33 14z"/>
<path d="M1282 3373 c2 -10 10 -18 18 -18 8 0 16 8 18 18 2 12 -3 17 -18 17
-15 0 -20 -5 -18 -17z"/>
<path d="M1407 3194 c-4 -4 -7 -18 -7 -31 0 -19 5 -23 31 -23 27 0 30 3 27 28
-3 26 -34 43 -51 26z"/>
<path d="M1306 3175 c-3 -9 1 -18 10 -22 19 -7 39 11 30 26 -10 16 -33 13 -40
-4z"/>
<path d="M1370 3090 c0 -11 7 -20 15 -20 8 0 15 9 15 20 0 11 -7 20 -15 20 -8
0 -15 -9 -15 -20z"/>
<path d="M1300 3070 c0 -25 4 -30 25 -30 21 0 25 5 25 30 0 25 -4 30 -25 30
-21 0 -25 -5 -25 -30z"/>
<path d="M1390 2995 c0 -8 7 -15 15 -15 8 0 15 7 15 15 0 8 -7 15 -15 15 -8 0
-15 -7 -15 -15z"/>
<path d="M1320 2971 c0 -28 3 -31 31 -31 27 0 30 3 27 28 -2 21 -9 28 -30 30
-25 3 -28 0 -28 -27z"/>
<path d="M1540 3000 c0 -27 3 -30 30 -30 27 0 30 3 30 30 0 27 -3 30 -30 30
-27 0 -30 -3 -30 -30z"/>
<path d="M1467 2953 c-14 -13 -6 -33 13 -33 13 0 20 7 20 20 0 19 -20 27 -33
13z"/>
<path d="M1560 2945 c0 -8 7 -15 15 -15 8 0 15 7 15 15 0 8 -7 15 -15 15 -8 0
-15 -7 -15 -15z"/>
<path d="M1577 2903 c-4 -3 -7 -17 -7 -30 0 -19 5 -23 30 -23 27 0 30 3 30 30
0 25 -4 30 -23 30 -13 0 -27 -3 -30 -7z"/>
<path d="M1452 2863 c2 -22 9 -29 31 -31 24 -3 27 0 27 27 0 28 -3 31 -31 31
-27 0 -30 -3 -27 -27z"/>
<path d="M1530 2825 c0 -8 7 -15 15 -15 8 0 15 7 15 15 0 8 -7 15 -15 15 -8 0
-15 -7 -15 -15z"/>
<path d="M1412 2803 c5 -26 38 -29 38 -4 0 15 -6 21 -21 21 -14 0 -19 -5 -17
-17z"/>
<path d="M1480 2779 c0 -14 5 -19 17 -17 26 5 29 38 4 38 -15 0 -21 -6 -21
-21z"/>
<path d="M1470 2545 c0 -8 9 -15 20 -15 11 0 20 7 20 15 0 8 -9 15 -20 15 -11
0 -20 -7 -20 -15z"/>
<path d="M1270 2491 c0 -28 3 -31 31 -31 27 0 30 3 27 28 -2 21 -9 28 -30 30
-25 3 -28 0 -28 -27z"/>
<path d="M1150 2435 l0 -45 45 0 45 0 0 45 0 45 -45 0 -45 0 0 -45z"/>
<path d="M1380 2335 c0 -8 7 -15 15 -15 8 0 15 7 15 15 0 8 -7 15 -15 15 -8 0
-15 -7 -15 -15z"/>
<path d="M1760 3930 c0 -27 3 -30 30 -30 27 0 30 3 30 30 0 27 -3 30 -30 30
-27 0 -30 -3 -30 -30z"/>
<path d="M1850 3940 c0 -13 7 -20 20 -20 13 0 20 7 20 20 0 13 -7 20 -20 20
-13 0 -20 -7 -20 -20z"/>
<path d="M1200 3905 l0 -45 50 0 50 0 0 45 0 45 -50 0 -50 0 0 -45z"/>
<path d="M1640 3930 c0 -11 7 -20 15 -20 8 0 15 9 15 20 0 11 -7 20 -15 20 -8
0 -15 -9 -15 -20z"/>
<path d="M1990 3930 c0 -15 5 -20 18 -18 9 2 17 10 17 18 0 8 -8 16 -17 18
-13 2 -18 -3 -18 -18z"/>
<path d="M2475 3940 c-8 -14 3 -30 21 -30 8 0 14 9 14 20 0 21 -24 28 -35 10z"/>
<path d="M2552 3923 c5 -25 28 -28 28 -4 0 12 -6 21 -16 21 -9 0 -14 -7 -12
-17z"/>
<path d="M1510 3885 l0 -45 45 0 45 0 0 45 0 45 -45 0 -45 0 0 -45z"/>
<path d="M2270 3911 c0 -15 6 -21 21 -21 25 0 22 33 -4 38 -12 2 -17 -3 -17
-17z"/>
<path d="M2610 3885 l0 -45 45 0 45 0 0 45 0 45 -45 0 -45 0 0 -45z"/>
<path d="M3077 3923 c-4 -3 -7 -33 -7 -65 l0 -58 65 0 65 0 0 65 0 65 -58 0
c-32 0 -62 -3 -65 -7z"/>
<path d="M3260 3899 c0 -27 3 -30 28 -27 21 2 28 9 30 31 3 24 0 27 -27 27
-28 0 -31 -3 -31 -31z"/>
<path d="M1330 3905 c0 -8 7 -15 15 -15 8 0 15 7 15 15 0 8 -7 15 -15 15 -8 0
-15 -7 -15 -15z"/>
<path d="M4220 3900 c0 -11 7 -20 15 -20 8 0 15 9 15 20 0 11 -7 20 -15 20 -8
0 -15 -9 -15 -20z"/>
<path d="M765 3901 c-8 -15 3 -31 21 -31 9 0 14 7 12 17 -4 20 -24 28 -33 14z"/>
<path d="M2072 3863 l3 -48 45 0 45 0 0 45 0 45 -48 3 -48 3 3 -48z"/>
<path d="M2887 3903 c-4 -3 -7 -24 -7 -45 l0 -38 45 0 45 0 0 45 0 45 -38 0
c-21 0 -42 -3 -45 -7z"/>
<path d="M3690 3895 c0 -8 7 -15 15 -15 8 0 15 7 15 15 0 8 -7 15 -15 15 -8 0
-15 -7 -15 -15z"/>
<path d="M1030 3851 l0 -51 46 0 45 0 -3 48 -3 47 -42 3 -43 3 0 -50z"/>
<path d="M1440 3880 c0 -11 7 -20 15 -20 8 0 15 9 15 20 0 11 -7 20 -15 20 -8
0 -15 -9 -15 -20z"/>
<path d="M2210 3885 c0 -8 9 -15 20 -15 11 0 20 7 20 15 0 8 -9 15 -20 15 -11
0 -20 -7 -20 -15z"/>
<path d="M2407 3893 c-4 -3 -7 -33 -7 -65 l0 -58 65 0 65 0 0 65 0 65 -58 0
c-32 0 -62 -3 -65 -7z"/>
<path d="M4815 3891 c-8 -15 3 -31 21 -31 9 0 14 7 12 17 -4 20 -24 28 -33 14z"/>
<path d="M2557 3884 c-14 -15 -6 -34 14 -34 14 0 19 5 17 17 -3 18 -20 27 -31
17z"/>
<path d="M2810 3860 c0 -27 3 -30 30 -30 27 0 30 3 30 30 0 27 -3 30 -30 30
-27 0 -30 -3 -30 -30z"/>
<path d="M4050 3871 c0 -15 6 -21 21 -21 14 0 19 5 17 17 -5 26 -38 29 -38 4z"/>
<path d="M860 3865 c0 -8 9 -15 20 -15 11 0 20 7 20 15 0 8 -9 15 -20 15 -11
0 -20 -7 -20 -15z"/>
<path d="M1987 3874 c-4 -4 -7 -18 -7 -31 0 -19 5 -23 31 -23 27 0 30 3 27 28
-3 26 -34 43 -51 26z"/>
<path d="M2310 3859 c0 -14 5 -19 17 -17 26 5 29 38 4 38 -15 0 -21 -6 -21
-21z"/>
<path d="M2730 3860 c0 -15 5 -20 18 -18 9 2 17 10 17 18 0 8 -8 16 -17 18
-13 2 -18 -3 -18 -18z"/>
<path d="M4570 3860 c0 -11 7 -20 15 -20 8 0 15 9 15 20 0 11 -7 20 -15 20 -8
0 -15 -9 -15 -20z"/>
<path d="M595 3860 c-8 -14 3 -30 21 -30 8 0 14 9 14 20 0 21 -24 28 -35 10z"/>
<path d="M4385 3850 c-8 -14 3 -30 21 -30 8 0 14 9 14 20 0 21 -24 28 -35 10z"/>
<path d="M1362 3823 c2 -22 9 -29 31 -31 24 -3 27 0 27 27 0 28 -3 31 -31 31
-27 0 -30 -3 -27 -27z"/>
<path d="M1770 3820 c0 -13 7 -20 20 -20 13 0 20 7 20 20 0 13 -7 20 -20 20
-13 0 -20 -7 -20 -20z"/>
<path d="M2180 3820 c0 -11 7 -20 15 -20 8 0 15 9 15 20 0 11 -7 20 -15 20 -8
0 -15 -9 -15 -20z"/>
<path d="M3830 3810 c0 -27 3 -30 30 -30 27 0 30 3 30 30 0 27 -3 30 -30 30
-27 0 -30 -3 -30 -30z"/>
<path d="M1230 3810 c0 -11 7 -20 15 -20 8 0 15 9 15 20 0 11 -7 20 -15 20 -8
0 -15 -9 -15 -20z"/>
<path d="M3310 3800 c0 -27 3 -30 30 -30 27 0 30 3 30 30 0 27 -3 30 -30 30
-27 0 -30 -3 -30 -30z"/>
<path d="M3600 3810 c0 -11 7 -20 15 -20 8 0 15 9 15 20 0 11 -7 20 -15 20 -8
0 -15 -9 -15 -20z"/>
<path d="M1500 3805 c0 -8 7 -15 15 -15 8 0 15 7 15 15 0 8 -7 15 -15 15 -8 0
-15 -7 -15 -15z"/>
<path d="M2230 3791 c0 -28 3 -31 31 -31 27 0 30 3 27 28 -2 21 -9 28 -30 30
-25 3 -28 0 -28 -27z"/>
<path d="M2662 3793 c2 -22 9 -29 31 -31 24 -3 27 0 27 27 0 28 -3 31 -31 31
-27 0 -30 -3 -27 -27z"/>
<path d="M3412 3758 l3 -63 63 -3 62 -3 0 66 0 65 -65 0 -66 0 3 -62z"/>
<path d="M962 3793 c5 -26 38 -29 38 -4 0 15 -6 21 -21 21 -14 0 -19 -5 -17
-17z"/>
<path d="M2013 3803 c-32 -4 -33 -6 -33 -49 l0 -44 45 0 45 0 0 50 c0 34 -4
49 -12 48 -7 0 -28 -3 -45 -5z"/>
<path d="M2777 3804 c-14 -15 -6 -34 14 -34 14 0 19 5 17 17 -3 18 -20 27 -31
17z"/>
<path d="M3232 3793 c5 -26 38 -29 38 -4 0 15 -6 21 -21 21 -14 0 -19 -5 -17
-17z"/>
<path d="M900 3785 c0 -8 7 -15 15 -15 8 0 15 7 15 15 0 8 -7 15 -15 15 -8 0
-15 -7 -15 -15z"/>
<path d="M1272 3791 c-8 -4 -12 -19 -10 -32 2 -19 9 -24 33 -24 27 0 30 3 30
30 0 22 -5 31 -20 33 -11 1 -26 -2 -33 -7z"/>
<path d="M2555 3790 c-8 -14 3 -30 21 -30 8 0 14 9 14 20 0 21 -24 28 -35 10z"/>
<path d="M770 3760 c0 -25 4 -30 24 -30 19 0 25 -6 28 -27 2 -22 9 -29 31 -31
24 -3 27 0 27 27 0 26 -4 31 -25 31 -21 0 -25 5 -25 30 0 27 -3 30 -30 30 -27
0 -30 -3 -30 -30z"/>
<path d="M2310 3774 c0 -17 22 -14 28 4 2 7 -3 12 -12 12 -9 0 -16 -7 -16 -16z"/>
<path d="M4190 3769 c0 -14 5 -19 17 -17 26 5 29 38 4 38 -15 0 -21 -6 -21
-21z"/>
<path d="M4710 3770 c0 -13 7 -20 20 -20 13 0 20 7 20 20 0 13 -7 20 -20 20
-13 0 -20 -7 -20 -20z"/>
<path d="M1377 3773 c-14 -13 -6 -33 13 -33 13 0 20 7 20 20 0 19 -20 27 -33
13z"/>
<path d="M1557 3773 c-4 -3 -7 -24 -7 -45 l0 -38 50 0 50 0 0 45 0 45 -43 0
c-24 0 -47 -3 -50 -7z"/>
<path d="M1774 3769 c-10 -17 13 -36 27 -22 12 12 4 33 -11 33 -5 0 -12 -5
-16 -11z"/>
<path d="M2100 3750 c0 -25 4 -30 24 -30 16 0 26 7 29 22 8 29 1 38 -29 38
-20 0 -24 -5 -24 -30z"/>
<path d="M2620 3760 c0 -11 7 -20 15 -20 8 0 15 9 15 20 0 11 -7 20 -15 20 -8
0 -15 -9 -15 -20z"/>
<path d="M2840 3730 l0 -50 45 0 45 0 0 50 0 50 -45 0 -45 0 0 -50z"/>
<path d="M2970 3761 c0 -15 6 -21 21 -21 14 0 19 5 17 17 -5 26 -38 29 -38 4z"/>
<path d="M3710 3750 c0 -27 3 -30 30 -30 27 0 30 3 30 30 0 27 -3 30 -30 30
-27 0 -30 -3 -30 -30z"/>
<path d="M610 3741 c0 -28 3 -31 31 -31 27 0 30 3 27 28 -2 21 -9 28 -30 30
-25 3 -28 0 -28 -27z"/>
<path d="M3120 3750 c0 -15 5 -20 18 -18 9 2 17 10 17 18 0 8 -8 16 -17 18
-13 2 -18 -3 -18 -18z"/>
<path d="M3560 3720 l0 -51 48 3 47 3 0 45 0 45 -47 3 -48 3 0 -51z"/>
<path d="M4000 3755 c0 -8 7 -15 15 -15 8 0 15 7 15 15 0 8 -7 15 -15 15 -8 0
-15 -7 -15 -15z"/>
<path d="M717 3754 c-14 -15 -6 -34 14 -34 14 0 19 5 17 17 -3 18 -20 27 -31
17z"/>
<path d="M1490 3740 c0 -13 7 -20 20 -20 13 0 20 7 20 20 0 13 -7 20 -20 20
-13 0 -20 -7 -20 -20z"/>
<path d="M430 3730 c0 -11 7 -20 15 -20 8 0 15 9 15 20 0 11 -7 20 -15 20 -8
0 -15 -9 -15 -20z"/>
<path d="M930 3720 c0 -27 3 -30 30 -30 27 0 30 3 30 30 0 27 -3 30 -30 30
-27 0 -30 -3 -30 -30z"/>
<path d="M1060 3700 l0 -50 45 0 45 0 0 50 0 50 -45 0 -45 0 0 -50z"/>
<path d="M1670 3720 c0 -28 3 -31 28 -28 21 2 27 8 27 28 0 20 -6 26 -27 28
-25 3 -28 0 -28 -28z"/>
<path d="M2670 3721 c0 -15 6 -21 21 -21 14 0 19 5 17 17 -5 26 -38 29 -38 4z"/>
<path d="M3790 3719 c0 -25 33 -22 38 4 2 12 -3 17 -17 17 -15 0 -21 -6 -21
-21z"/>
<path d="M4530 3708 c0 -23 4 -28 25 -28 21 0 25 5 25 28 0 22 -4 27 -25 27
-21 0 -25 -5 -25 -27z"/>
<path d="M1920 3714 c0 -9 7 -14 17 -12 25 5 28 28 4 28 -12 0 -21 -6 -21 -16z"/>
<path d="M2474 3716 c-12 -31 0 -51 31 -51 26 0 29 3 29 30 0 25 -4 31 -27 33
-17 2 -29 -2 -33 -12z"/>
<path d="M3220 3685 l0 -45 45 0 c42 0 45 -2 45 -26 0 -23 3 -25 33 -22 27 2
33 8 35 31 3 25 1 27 -32 27 -35 0 -36 1 -36 40 l0 40 -45 0 -45 0 0 -45z"/>
<path d="M1390 3675 l0 -45 45 0 45 0 0 45 0 45 -45 0 -45 0 0 -45z"/>
<path d="M2340 3690 c0 -27 3 -30 30 -30 27 0 30 3 30 30 0 27 -3 30 -30 30
-27 0 -30 -3 -30 -30z"/>
<path d="M2730 3675 c0 -43 1 -45 30 -45 24 0 30 -4 30 -21 0 -14 5 -19 17
-17 9 2 16 6 15 11 -1 4 -2 32 -2 62 l0 55 -45 0 -45 0 0 -45z"/>
<path d="M3040 3655 l0 -65 60 0 60 0 0 65 0 65 -60 0 -60 0 0 -65z"/>
<path d="M2250 3685 c0 -20 5 -25 25 -25 20 0 25 5 25 25 0 20 -5 25 -25 25
-20 0 -25 -5 -25 -25z"/>
<path d="M2564 3697 c-3 -9 -4 -30 -2 -49 3 -32 5 -33 51 -36 l48 -3 -3 48 -3
48 -43 3 c-30 2 -44 -1 -48 -11z"/>
<path d="M1242 3673 c2 -22 9 -29 31 -31 24 -3 27 0 27 27 0 28 -3 31 -31 31
-27 0 -30 -3 -27 -27z"/>
<path d="M1320 3680 c0 -13 7 -20 20 -20 13 0 20 7 20 20 0 13 -7 20 -20 20
-13 0 -20 -7 -20 -20z"/>
<path d="M3907 3693 c-4 -3 -7 -17 -7 -30 0 -19 5 -23 30 -23 27 0 30 3 30 30
0 25 -4 30 -23 30 -13 0 -27 -3 -30 -7z"/>
<path d="M4067 3694 c-14 -15 -6 -34 14 -34 14 0 19 5 17 17 -3 18 -20 27 -31
17z"/>
<path d="M640 3613 l0 -69 63 1 62 0 0 65 0 65 -62 3 -63 3 0 -68z"/>
<path d="M982 3663 c2 -10 10 -18 18 -18 8 0 16 8 18 18 2 12 -3 17 -18 17
-15 0 -20 -5 -18 -17z"/>
<path d="M1174 3669 c-8 -14 11 -33 25 -25 6 4 11 14 11 22 0 16 -26 19 -36 3z"/>
<path d="M1930 3615 l0 -65 65 0 65 0 0 65 0 65 -65 0 -65 0 0 -65z"/>
<path d="M2087 3673 c-4 -3 -7 -12 -7 -20 0 -17 26 -17 33 1 8 21 -11 35 -26
19z"/>
<path d="M2186 3673 c-12 -12 -6 -33 9 -33 8 0 15 6 15 14 0 17 -14 28 -24 19z"/>
<path d="M3407 3673 c-14 -13 -6 -33 13 -33 13 0 20 7 20 20 0 19 -20 27 -33
13z"/>
<path d="M4232 3663 c2 -10 10 -18 18 -18 8 0 16 8 18 18 2 12 -3 17 -18 17
-15 0 -20 -5 -18 -17z"/>
<path d="M1533 3657 c-38 -19 -29 -44 18 -52 47 -8 62 2 57 36 -3 27 -38 34
-75 16z"/>
<path d="M1667 3663 c-14 -13 -6 -33 13 -33 13 0 20 7 20 20 0 19 -20 27 -33
13z"/>
<path d="M2430 3650 c0 -15 5 -20 18 -18 9 2 17 10 17 18 0 8 -8 16 -17 18
-13 2 -18 -3 -18 -18z"/>
<path d="M440 3615 l0 -46 48 3 47 3 0 40 0 40 -47 3 -48 3 0 -46z"/>
<path d="M576 3643 c-13 -14 -5 -33 14 -33 11 0 20 6 20 14 0 15 -24 28 -34
19z"/>
<path d="M2850 3634 c0 -9 5 -14 12 -12 18 6 21 28 4 28 -9 0 -16 -7 -16 -16z"/>
<path d="M2922 3608 l3 -43 48 -3 47 -3 0 45 0 46 -51 0 -50 0 3 -42z"/>
<path d="M3620 3620 c0 -27 3 -30 30 -30 27 0 30 3 30 30 0 27 -3 30 -30 30
-27 0 -30 -3 -30 -30z"/>
<path d="M869 3636 c0 -3 -1 -25 -1 -48 l-1 -43 44 0 44 0 0 45 0 45 -42 3
c-24 2 -43 1 -44 -2z"/>
<path d="M2240 3610 c0 -27 3 -30 30 -30 27 0 30 3 30 30 0 27 -3 30 -30 30
-27 0 -30 -3 -30 -30z"/>
<path d="M3704 3627 c-3 -9 -4 -30 -2 -49 3 -32 4 -33 48 -33 l45 0 0 45 0 45
-43 3 c-30 2 -44 -1 -48 -11z"/>
<path d="M310 3615 c0 -8 7 -15 15 -15 8 0 15 7 15 15 0 8 -7 15 -15 15 -8 0
-15 -7 -15 -15z"/>
<path d="M800 3615 c0 -8 7 -15 15 -15 8 0 15 7 15 15 0 8 -7 15 -15 15 -8 0
-15 -7 -15 -15z"/>
<path d="M1070 3590 l0 -40 40 0 40 0 0 40 0 40 -40 0 -40 0 0 -40z"/>
<path d="M2517 3624 c-14 -15 -6 -34 14 -34 14 0 19 5 17 17 -3 18 -20 27 -31
17z"/>
<path d="M2677 3624 c-14 -15 -6 -34 14 -34 14 0 19 5 17 17 -3 18 -20 27 -31
17z"/>
<path d="M4700 3615 c0 -8 7 -15 15 -15 8 0 15 7 15 15 0 8 -7 15 -15 15 -8 0
-15 -7 -15 -15z"/>
<path d="M1174 3599 c-8 -14 11 -33 25 -25 6 4 11 14 11 22 0 16 -26 19 -36 3z"/>
<path d="M1450 3595 c0 -8 7 -15 15 -15 8 0 15 7 15 15 0 8 -7 15 -15 15 -8 0
-15 -7 -15 -15z"/>
<path d="M1880 3590 c0 -15 5 -20 18 -18 9 2 17 10 17 18 0 8 -8 16 -17 18
-13 2 -18 -3 -18 -18z"/>
<path d="M2420 3580 c0 -27 3 -30 30 -30 27 0 30 3 30 30 0 27 -3 30 -30 30
-27 0 -30 -3 -30 -30z"/>
<path d="M3480 3565 l0 -45 45 0 45 0 0 45 0 45 -45 0 -45 0 0 -45z"/>
<path d="M4020 3580 c0 -27 3 -30 30 -30 27 0 30 3 30 30 0 27 -3 30 -30 30
-27 0 -30 -3 -30 -30z"/>
<path d="M2577 3593 c-14 -13 -6 -33 13 -33 13 0 20 7 20 20 0 19 -20 27 -33
13z"/>
<path d="M1353 3574 c-10 -27 2 -49 27 -49 20 0 26 6 28 26 3 22 -2 27 -23 31
-17 4 -28 1 -32 -8z"/>
<path d="M4370 3571 c0 -15 6 -21 21 -21 14 0 19 5 17 17 -5 26 -38 29 -38 4z"/>
<path d="M2710 3515 l0 -65 70 0 71 0 -3 63 -3 62 -67 3 -68 3 0 -66z"/>
<path d="M556 3561 c-7 -11 18 -33 27 -24 4 3 7 12 7 20 0 15 -26 18 -34 4z"/>
<path d="M970 3521 l0 -51 46 0 45 0 -3 48 -3 47 -42 3 -43 3 0 -50z"/>
<path d="M1490 3551 c0 -15 6 -21 21 -21 25 0 22 33 -4 38 -12 2 -17 -3 -17
-17z"/>
<path d="M2860 3555 c0 -8 9 -15 20 -15 11 0 20 7 20 15 0 8 -9 15 -20 15 -11
0 -20 -7 -20 -15z"/>
<path d="M3830 3555 c0 -8 9 -15 20 -15 11 0 20 7 20 15 0 8 -9 15 -20 15 -11
0 -20 -7 -20 -15z"/>
<path d="M1560 3531 c0 -26 3 -30 28 -28 21 2 28 8 30 30 3 24 0 27 -27 27
-28 0 -31 -3 -31 -29z"/>
<path d="M2230 3545 c0 -8 7 -15 15 -15 8 0 15 7 15 15 0 8 -7 15 -15 15 -8 0
-15 -7 -15 -15z"/>
<path d="M2510 3540 c0 -15 5 -20 18 -18 9 2 17 10 17 18 0 8 -8 16 -17 18
-13 2 -18 -3 -18 -18z"/>
<path d="M2630 3538 c0 -20 -5 -23 -42 -23 l-43 0 -3 -47 -3 -48 50 0 c43 0
51 3 51 19 0 11 6 18 16 17 25 -2 29 24 5 31 -12 3 -21 10 -21 15 0 6 11 7 25
4 23 -6 25 -3 25 24 0 27 -3 30 -30 30 -24 0 -30 -4 -30 -22z"/>
<path d="M3380 3540 c0 -13 7 -20 20 -20 13 0 20 7 20 20 0 13 -7 20 -20 20
-13 0 -20 -7 -20 -20z"/>
<path d="M2930 3520 c0 -27 3 -30 30 -30 27 0 30 3 30 30 0 27 -3 30 -30 30
-27 0 -30 -3 -30 -30z"/>
<path d="M3142 3503 l3 -48 45 0 45 0 3 48 3 47 -51 0 -51 0 3 -47z"/>
<path d="M3280 3530 c0 -11 7 -20 15 -20 8 0 15 9 15 20 0 11 -7 20 -15 20 -8
0 -15 -9 -15 -20z"/>
<path d="M400 3520 c0 -15 5 -20 18 -18 9 2 17 10 17 18 0 8 -8 16 -17 18 -13
2 -18 -3 -18 -18z"/>
<path d="M663 3523 c-4 -9 -1 -19 5 -21 7 -2 12 -23 12 -48 l0 -44 39 0 c37 0
39 1 44 38 6 49 1 55 -39 50 -20 -2 -33 0 -33 7 4 36 -16 50 -28 18z"/>
<path d="M810 3509 c0 -27 3 -30 28 -27 21 2 28 9 30 31 3 24 0 27 -27 27 -28
0 -31 -3 -31 -31z"/>
<path d="M1162 3513 c2 -22 9 -29 31 -31 24 -3 27 0 27 27 0 28 -3 31 -31 31
-27 0 -30 -3 -27 -27z"/>
<path d="M1427 3534 c-4 -4 -7 -18 -7 -31 0 -19 5 -23 31 -23 27 0 30 3 27 28
-3 26 -34 43 -51 26z"/>
<path d="M3050 3509 c0 -27 3 -30 28 -27 21 2 28 9 30 31 3 24 0 27 -27 27
-28 0 -31 -3 -31 -31z"/>
<path d="M250 3480 l0 -51 47 3 46 3 0 45 0 45 -46 3 -47 3 0 -51z"/>
<path d="M2430 3500 c0 -27 3 -30 30 -30 27 0 30 3 30 30 0 27 -3 30 -30 30
-27 0 -30 -3 -30 -30z"/>
<path d="M4177 3523 c-14 -13 -6 -33 13 -33 13 0 20 7 20 20 0 19 -20 27 -33
13z"/>
<path d="M490 3500 c0 -11 7 -20 15 -20 8 0 15 9 15 20 0 11 -7 20 -15 20 -8
0 -15 -9 -15 -20z"/>
<path d="M580 3490 c0 -27 3 -30 30 -30 27 0 30 3 30 30 0 27 -3 30 -30 30
-27 0 -30 -3 -30 -30z"/>
<path d="M1820 3490 c0 -27 3 -30 30 -30 27 0 30 3 30 30 0 27 -3 30 -30 30
-27 0 -30 -3 -30 -30z"/>
<path d="M1900 3500 c0 -11 7 -20 15 -20 8 0 15 9 15 20 0 11 -7 20 -15 20 -8
0 -15 -9 -15 -20z"/>
<path d="M1950 3475 l0 -45 50 0 50 0 0 45 0 45 -50 0 -50 0 0 -45z"/>
<path d="M3590 3455 l0 -65 65 0 66 0 -3 63 -3 62 -62 3 -63 3 0 -66z"/>
<path d="M3877 3513 c-4 -3 -7 -24 -7 -45 l0 -38 50 0 50 0 0 45 0 45 -43 0
c-24 0 -47 -3 -50 -7z"/>
<path d="M1090 3495 c0 -8 7 -15 15 -15 8 0 15 7 15 15 0 8 -7 15 -15 15 -8 0
-15 -7 -15 -15z"/>
<path d="M3782 3483 c2 -22 8 -28 28 -28 20 0 26 6 28 28 3 24 0 27 -28 27
-28 0 -31 -3 -28 -27z"/>
<path d="M3450 3480 c0 -11 7 -20 15 -20 8 0 15 9 15 20 0 11 -7 20 -15 20 -8
0 -15 -9 -15 -20z"/>
<path d="M4580 3471 c0 -28 3 -31 31 -31 27 0 30 3 27 28 -2 21 -9 28 -30 30
-25 3 -28 0 -28 -27z"/>
<path d="M1367 3483 c-14 -13 -6 -33 13 -33 13 0 20 7 20 20 0 19 -20 27 -33
13z"/>
<path d="M1585 3480 c-8 -14 3 -30 21 -30 8 0 14 9 14 20 0 21 -24 28 -35 10z"/>
<path d="M2160 3459 c0 -14 5 -19 17 -17 26 5 29 38 4 38 -15 0 -21 -6 -21
-21z"/>
<path d="M4070 3465 c0 -8 7 -15 15 -15 8 0 15 7 15 15 0 8 -7 15 -15 15 -8 0
-15 -7 -15 -15z"/>
<path d="M417 3464 c-14 -15 -6 -34 14 -34 14 0 19 5 17 17 -3 18 -20 27 -31
17z"/>
<path d="M797 3463 c-4 -3 -7 -19 -7 -35 0 -24 4 -28 30 -28 28 0 30 3 30 35
0 30 -3 35 -23 35 -13 0 -27 -3 -30 -7z"/>
<path d="M880 3440 c0 -27 3 -30 30 -30 27 0 30 3 30 30 0 27 -3 30 -30 30
-27 0 -30 -3 -30 -30z"/>
<path d="M1150 3455 c0 -8 9 -15 20 -15 11 0 20 7 20 15 0 8 -9 15 -20 15 -11
0 -20 -7 -20 -15z"/>
<path d="M4460 3450 c0 -11 7 -20 15 -20 8 0 15 9 15 20 0 11 -7 20 -15 20 -8
0 -15 -9 -15 -20z"/>
<path d="M992 3448 c7 -19 38 -22 38 -4 0 10 -9 16 -21 16 -12 0 -19 -5 -17
-12z"/>
<path d="M1500 3432 c0 -24 4 -28 28 -27 21 1 28 7 30 28 3 24 0 27 -27 27
-27 0 -31 -3 -31 -28z"/>
<path d="M2944 3446 c-11 -29 0 -51 26 -51 21 0 25 5 25 30 0 24 -5 31 -23 33
-13 2 -24 -3 -28 -12z"/>
<path d="M3320 3435 c0 -8 7 -15 15 -15 8 0 15 7 15 15 0 8 -7 15 -15 15 -8 0
-15 -7 -15 -15z"/>
<path d="M2320 3375 l0 -65 65 0 66 0 -3 63 -3 62 -62 3 -63 3 0 -66z"/>
<path d="M2470 3420 c0 -11 5 -20 10 -20 6 0 10 -9 10 -20 0 -13 7 -20 20 -20
13 0 20 7 20 20 0 11 -7 20 -15 20 -8 0 -15 9 -15 20 0 11 -7 20 -15 20 -8 0
-15 -9 -15 -20z"/>
<path d="M2690 3411 c0 -28 3 -31 31 -31 27 0 30 3 27 28 -2 21 -9 28 -30 30
-25 3 -28 0 -28 -27z"/>
<path d="M2797 3433 c-4 -3 -7 -17 -7 -30 0 -19 5 -23 30 -23 27 0 30 3 30 30
0 25 -4 30 -23 30 -13 0 -27 -3 -30 -7z"/>
<path d="M3050 3421 c0 -12 6 -21 16 -21 9 0 14 7 12 17 -5 25 -28 28 -28 4z"/>
<path d="M3420 3390 l0 -50 45 0 45 0 0 50 0 50 -45 0 -45 0 0 -50z"/>
<path d="M3757 3433 c-14 -13 -6 -33 13 -33 13 0 20 7 20 20 0 19 -20 27 -33
13z"/>
<path d="M4252 3413 c2 -22 8 -28 28 -28 20 0 25 5 25 25 0 20 -6 26 -28 28
-26 3 -28 1 -25 -25z"/>
<path d="M1829 3426 c0 -3 -1 -25 -1 -48 l-1 -43 44 0 44 0 0 45 0 45 -42 3
c-24 2 -43 1 -44 -2z"/>
<path d="M3220 3411 c0 -15 6 -21 21 -21 25 0 22 33 -4 38 -12 2 -17 -3 -17
-17z"/>
<path d="M417 3413 c-4 -3 -7 -17 -7 -30 0 -19 5 -23 30 -23 27 0 30 3 30 30
0 25 -4 30 -23 30 -13 0 -27 -3 -30 -7z"/>
<path d="M197 3403 c-14 -13 -6 -33 13 -33 13 0 20 7 20 20 0 19 -20 27 -33
13z"/>
<path d="M2605 3400 c-8 -13 3 -30 18 -30 7 0 12 -14 12 -32 0 -29 4 -33 28
-36 24 -3 27 0 27 27 0 24 -4 31 -20 31 -13 0 -24 10 -30 25 -10 26 -24 32
-35 15z"/>
<path d="M1950 3380 c0 -13 5 -20 13 -17 6 2 12 10 12 17 0 7 -6 15 -12 18 -8
2 -13 -5 -13 -18z"/>
<path d="M2885 3390 c-7 -12 2 -30 16 -30 5 0 9 9 9 20 0 21 -15 27 -25 10z"/>
<path d="M3140 3380 c0 -13 7 -20 20 -20 13 0 20 7 20 20 0 13 -7 20 -20 20
-13 0 -20 -7 -20 -20z"/>
<path d="M3980 3380 c0 -13 7 -20 20 -20 13 0 20 7 20 20 0 13 -7 20 -20 20
-13 0 -20 -7 -20 -20z"/>
<path d="M833 3338 c2 -50 4 -53 30 -56 25 -3 27 -1 27 32 0 25 -4 36 -15 36
-8 0 -15 9 -15 20 0 11 -7 20 -15 20 -11 0 -14 -12 -12 -52z"/>
<path d="M1130 3370 c0 -15 5 -20 18 -18 9 2 17 10 17 18 0 8 -8 16 -17 18
-13 2 -18 -3 -18 -18z"/>
<path d="M1990 3360 c0 -27 3 -30 30 -30 27 0 30 3 30 30 0 27 -3 30 -30 30
-27 0 -30 -3 -30 -30z"/>
<path d="M290 3359 c0 -14 5 -19 17 -17 26 5 29 38 4 38 -15 0 -21 -6 -21 -21z"/>
<path d="M682 3363 c2 -10 10 -18 18 -18 8 0 16 8 18 18 2 12 -3 17 -18 17
-15 0 -20 -5 -18 -17z"/>
<path d="M1510 3335 l0 -45 45 0 c41 0 45 2 45 25 0 18 5 25 20 25 27 0 25 26
-2 34 -13 3 -42 6 -65 6 l-43 0 0 -45z"/>
<path d="M3302 3353 c2 -22 9 -29 31 -31 24 -3 27 0 27 27 0 28 -3 31 -31 31
-27 0 -30 -3 -27 -27z"/>
<path d="M3780 3349 c0 -27 3 -30 28 -27 21 2 28 9 30 31 3 24 0 27 -27 27
-28 0 -31 -3 -31 -31z"/>
<path d="M3880 3360 c0 -13 7 -20 20 -20 13 0 20 7 20 20 0 13 -7 20 -20 20
-13 0 -20 -7 -20 -20z"/>
<path d="M2552 3353 c5 -26 38 -29 38 -4 0 15 -6 21 -21 21 -14 0 -19 -5 -17
-17z"/>
<path d="M3007 3344 c-5 -27 8 -38 40 -32 11 2 19 14 21 31 3 24 0 27 -26 27
-24 0 -31 -5 -35 -26z"/>
<path d="M110 3330 c0 -27 3 -30 30 -30 27 0 30 3 30 30 0 27 -3 30 -30 30
-27 0 -30 -3 -30 -30z"/>
<path d="M3560 3330 c0 -27 3 -30 30 -30 27 0 30 3 30 30 0 27 -3 30 -30 30
-27 0 -30 -3 -30 -30z"/>
<path d="M4490 3340 c0 -15 5 -20 18 -18 9 2 17 10 17 18 0 8 -8 16 -17 18
-13 2 -18 -3 -18 -18z"/>
<path d="M3670 3321 c0 -28 3 -31 31 -31 27 0 30 3 27 28 -2 21 -9 28 -30 30
-25 3 -28 0 -28 -27z"/>
<path d="M2730 3310 c0 -27 3 -30 30 -30 27 0 30 3 30 30 0 27 -3 30 -30 30
-27 0 -30 -3 -30 -30z"/>
<path d="M2827 3334 c-4 -4 -7 -27 -7 -51 l0 -44 48 3 47 3 0 45 -1 45 -40 3
c-22 2 -43 0 -47 -4z"/>
<path d="M2270 3310 c0 -11 7 -20 15 -20 8 0 15 9 15 20 0 11 -7 20 -15 20 -8
0 -15 -9 -15 -20z"/>
<path d="M3140 3285 l0 -45 50 0 50 0 0 45 0 45 -50 0 -50 0 0 -45z"/>
<path d="M3437 3324 c-4 -4 -7 -18 -7 -31 0 -20 5 -23 36 -23 33 0 35 2 32 28
-2 20 -9 28 -28 30 -14 2 -29 0 -33 -4z"/>
<path d="M250 3300 c0 -13 5 -20 13 -17 6 2 12 10 12 17 0 7 -6 15 -12 18 -8
2 -13 -5 -13 -18z"/>
<path d="M370 3295 c0 -20 5 -25 25 -25 20 0 25 5 25 25 0 20 -5 25 -25 25
-20 0 -25 -5 -25 -25z"/>
<path d="M563 3303 c-2 -6 -3 -26 -1 -45 3 -31 5 -33 46 -36 28 -2 42 -8 42
-18 0 -19 26 -18 34 1 3 9 0 15 -9 15 -14 0 -16 7 -19 74 -1 15 -10 19 -45 20
-25 1 -45 -4 -48 -11z"/>
<path d="M1920 3270 l0 -50 45 0 45 0 0 50 0 50 -45 0 -45 0 0 -50z"/>
<path d="M4170 3305 c0 -8 7 -15 15 -15 8 0 15 7 15 15 0 8 -7 15 -15 15 -8 0
-15 -7 -15 -15z"/>
<path d="M2490 3291 c0 -15 6 -21 21 -21 14 0 19 5 17 17 -5 26 -38 29 -38 4z"/>
<path d="M470 3279 c0 -25 33 -22 38 4 2 12 -3 17 -17 17 -15 0 -21 -6 -21
-21z"/>
<path d="M670 3280 c0 -11 7 -20 15 -20 8 0 15 9 15 20 0 11 -7 20 -15 20 -8
0 -15 -9 -15 -20z"/>
<path d="M1120 3270 c0 -27 3 -30 30 -30 27 0 30 3 30 30 0 27 -3 30 -30 30
-27 0 -30 -3 -30 -30z"/>
<path d="M1820 3270 c0 -27 3 -30 30 -30 27 0 30 3 30 30 0 27 -3 30 -30 30
-27 0 -30 -3 -30 -30z"/>
<path d="M2050 3279 c0 -24 23 -21 28 4 2 10 -3 17 -12 17 -10 0 -16 -9 -16
-21z"/>
<path d="M2370 3280 c0 -15 5 -20 18 -18 9 2 17 10 17 18 0 8 -8 16 -17 18
-13 2 -18 -3 -18 -18z"/>
<path d="M2575 3290 c-8 -14 3 -30 21 -30 8 0 14 9 14 20 0 21 -24 28 -35 10z"/>
<path d="M2942 3243 l3 -58 63 -3 62 -3 0 61 0 60 -65 0 -66 0 3 -57z"/>
<path d="M3840 3270 c0 -27 3 -30 30 -30 27 0 30 3 30 30 0 27 -3 30 -30 30
-27 0 -30 -3 -30 -30z"/>
<path d="M3988 3295 c-3 -3 -3 -17 0 -30 3 -18 11 -25 28 -25 20 0 24 5 24 30
0 25 -4 30 -23 30 -13 0 -26 -2 -29 -5z"/>
<path d="M2210 3240 l0 -50 45 0 45 0 0 44 c0 46 -11 56 -67 56 -21 0 -23 -5
-23 -50z"/>
<path d="M2640 3270 c0 -15 5 -20 18 -18 9 2 17 10 17 18 0 8 -8 16 -17 18
-13 2 -18 -3 -18 -18z"/>
<path d="M3290 3271 c0 -12 6 -21 16 -21 9 0 14 7 12 17 -5 25 -28 28 -28 4z"/>
<path d="M880 3225 l0 -45 45 0 45 0 0 45 0 45 -45 0 -45 0 0 -45z"/>
<path d="M1500 3241 c0 -28 3 -31 31 -31 27 0 30 3 27 28 -2 21 -9 28 -30 30
-25 3 -28 0 -28 -27z"/>
<path d="M3550 3250 c0 -11 7 -20 15 -20 8 0 15 9 15 20 0 11 -7 20 -15 20 -8
0 -15 -9 -15 -20z"/>
<path d="M4292 3253 c2 -10 10 -18 18 -18 8 0 16 8 18 18 2 12 -3 17 -18 17
-15 0 -20 -5 -18 -17z"/>
<path d="M4590 3250 c0 -13 7 -20 20 -20 13 0 20 7 20 20 0 13 -7 20 -20 20
-13 0 -20 -7 -20 -20z"/>
<path d="M830 3240 c0 -15 5 -20 18 -18 9 2 17 10 17 18 0 8 -8 16 -17 18 -13
2 -18 -3 -18 -18z"/>
<path d="M1585 3250 c-8 -14 3 -30 21 -30 8 0 14 9 14 20 0 21 -24 28 -35 10z"/>
<path d="M150 3230 c0 -13 7 -20 20 -20 13 0 20 7 20 20 0 13 -7 20 -20 20
-13 0 -20 -7 -20 -20z"/>
<path d="M230 3205 l0 -45 50 0 50 0 0 45 0 45 -50 0 -50 0 0 -45z"/>
<path d="M2517 3244 c-14 -14 -7 -35 11 -32 9 2 17 10 17 17 0 16 -18 25 -28
15z"/>
<path d="M2614 3241 c-2 -2 -4 -24 -4 -48 l0 -43 45 0 c33 0 45 -4 45 -15 0
-10 10 -15 30 -15 27 0 30 3 30 30 0 27 -3 30 -29 30 -26 0 -30 4 -33 32 -3
29 -6 31 -41 32 -21 1 -41 -1 -43 -3z"/>
<path d="M3772 3242 c-19 -3 -23 -9 -20 -30 2 -21 8 -27 28 -27 19 0 26 6 28
24 4 29 -6 38 -36 33z"/>
<path d="M350 3210 c0 -15 5 -20 18 -18 9 2 17 10 17 18 0 8 -8 16 -17 18 -13
2 -18 -3 -18 -18z"/>
<path d="M2320 3215 c0 -8 7 -15 15 -15 8 0 15 7 15 15 0 8 -7 15 -15 15 -8 0
-15 -7 -15 -15z"/>
<path d="M3107 3223 c-14 -13 -6 -33 13 -33 13 0 20 7 20 20 0 19 -20 27 -33
13z"/>
<path d="M3330 3206 c0 -19 -6 -25 -27 -28 -22 -2 -29 -9 -31 -30 -3 -25 0
-28 27 -28 26 0 31 4 31 25 0 21 5 25 30 25 27 0 30 3 30 30 0 27 -3 30 -30
30 -25 0 -30 -4 -30 -24z"/>
<path d="M3687 3224 c-14 -15 -6 -34 14 -34 14 0 19 5 17 17 -3 18 -20 27 -31
17z"/>
<path d="M414 3207 c-3 -9 -4 -30 -2 -49 3 -32 4 -33 47 -33 l44 0 1 45 1 45
-43 3 c-30 2 -44 -1 -48 -11z"/>
<path d="M3610 3205 c0 -8 9 -15 20 -15 11 0 20 7 20 15 0 8 -9 15 -20 15 -11
0 -20 -7 -20 -15z"/>
<path d="M2810 3180 c0 -27 3 -30 30 -30 27 0 30 3 30 30 0 27 -3 30 -30 30
-27 0 -30 -3 -30 -30z"/>
<path d="M3215 3200 c-8 -14 3 -30 21 -30 8 0 14 9 14 20 0 21 -24 28 -35 10z"/>
<path d="M3482 3183 c2 -22 8 -28 28 -28 20 0 26 6 28 28 3 24 0 27 -28 27
-28 0 -31 -3 -28 -27z"/>
<path d="M780 3170 c0 -28 3 -30 35 -30 32 0 35 2 35 30 0 28 -3 30 -35 30
-32 0 -35 -2 -35 -30z"/>
<path d="M1134 3191 c-2 -2 -4 -15 -4 -28 0 -19 5 -23 30 -23 26 0 30 4 30 28
0 22 -4 27 -26 27 -14 0 -28 -2 -30 -4z"/>
<path d="M1685 3190 c-8 -14 3 -30 21 -30 8 0 14 9 14 20 0 21 -24 28 -35 10z"/>
<path d="M1893 3192 c-16 -2 -23 -10 -23 -26 0 -30 5 -34 35 -28 18 3 25 11
25 28 0 27 -7 31 -37 26z"/>
<path d="M3850 3180 c0 -13 7 -20 20 -20 13 0 20 7 20 20 0 13 -7 20 -20 20
-13 0 -20 -7 -20 -20z"/>
<path d="M3030 3125 l0 -45 45 0 45 0 0 45 0 45 -45 0 -45 0 0 -45z"/>
<path d="M3967 3163 c-14 -13 -6 -33 13 -33 13 0 20 7 20 20 0 19 -20 27 -33
13z"/>
<path d="M4533 3163 c-21 -7 -15 -33 7 -33 11 0 20 6 20 14 0 18 -11 25 -27
19z"/>
<path d="M120 3140 c0 -15 5 -20 18 -18 9 2 17 10 17 18 0 8 -8 16 -17 18 -13
2 -18 -3 -18 -18z"/>
<path d="M2057 3154 c-14 -15 -6 -34 14 -34 14 0 19 5 17 17 -3 18 -20 27 -31
17z"/>
<path d="M2920 3140 c0 -11 7 -20 15 -20 8 0 15 9 15 20 0 11 -7 20 -15 20 -8
0 -15 -9 -15 -20z"/>
<path d="M3170 3145 c0 -8 7 -15 15 -15 8 0 15 7 15 15 0 8 -7 15 -15 15 -8 0
-15 -7 -15 -15z"/>
<path d="M3688 3155 c-3 -3 -3 -17 0 -30 3 -18 11 -25 28 -25 20 0 24 5 24 30
0 25 -4 30 -23 30 -13 0 -26 -2 -29 -5z"/>
<path d="M4130 3140 c0 -11 7 -20 15 -20 8 0 15 9 15 20 0 11 -7 20 -15 20 -8
0 -15 -9 -15 -20z"/>
<path d="M700 3135 c0 -8 7 -15 15 -15 8 0 15 7 15 15 0 8 -7 15 -15 15 -8 0
-15 -7 -15 -15z"/>
<path d="M4290 3130 c0 -11 7 -20 15 -20 8 0 15 9 15 20 0 11 -7 20 -15 20 -8
0 -15 -9 -15 -20z"/>
<path d="M2300 3125 c0 -8 9 -15 20 -15 11 0 20 7 20 15 0 8 -9 15 -20 15 -11
0 -20 -7 -20 -15z"/>
<path d="M3790 3115 c0 -20 5 -25 25 -25 20 0 25 5 25 25 0 20 -5 25 -25 25
-20 0 -25 -5 -25 -25z"/>
<path d="M230 3115 c0 -8 9 -15 20 -15 11 0 20 7 20 15 0 8 -9 15 -20 15 -11
0 -20 -7 -20 -15z"/>
<path d="M350 3115 c0 -8 9 -15 20 -15 11 0 20 7 20 15 0 8 -9 15 -20 15 -11
0 -20 -7 -20 -15z"/>
<path d="M862 3118 c6 -18 28 -21 28 -4 0 9 -7 16 -16 16 -9 0 -14 -5 -12 -12z"/>
<path d="M760 3100 c0 -23 25 -27 33 -6 7 16 -1 26 -20 26 -7 0 -13 -9 -13
-20z"/>
<path d="M3560 3074 l0 -45 48 3 47 3 3 43 3 42 -50 0 -51 0 0 -46z"/>
<path d="M290 3095 c0 -8 7 -15 15 -15 8 0 15 7 15 15 0 8 -7 15 -15 15 -8 0
-15 -7 -15 -15z"/>
<path d="M482 3093 c2 -10 10 -18 18 -18 8 0 16 8 18 18 2 12 -3 17 -18 17
-15 0 -20 -5 -18 -17z"/>
<path d="M3420 3065 l0 -45 45 0 45 0 0 45 0 45 -45 0 -45 0 0 -45z"/>
<path d="M2670 3081 c0 -15 6 -21 21 -21 25 0 22 33 -4 38 -12 2 -17 -3 -17
-17z"/>
<path d="M3320 3070 c0 -27 3 -30 30 -30 27 0 30 3 30 30 0 27 -3 30 -30 30
-27 0 -30 -3 -30 -30z"/>
<path d="M410 3069 c0 -25 33 -22 38 4 2 12 -3 17 -17 17 -15 0 -21 -6 -21
-21z"/>
<path d="M2300 3045 l0 -45 45 0 45 0 0 45 0 45 -45 0 -45 0 0 -45z"/>
<path d="M2780 3060 c0 -25 4 -30 25 -30 21 0 25 5 25 30 0 25 -4 30 -25 30
-21 0 -25 -5 -25 -30z"/>
<path d="M2900 3060 c0 -28 3 -30 35 -30 32 0 35 2 35 30 0 28 -3 30 -35 30
-32 0 -35 -2 -35 -30z"/>
<path d="M4030 3075 c0 -8 7 -15 15 -15 8 0 15 7 15 15 0 8 -7 15 -15 15 -8 0
-15 -7 -15 -15z"/>
<path d="M3167 3073 c-14 -13 -6 -33 13 -33 13 0 20 7 20 20 0 19 -20 27 -33
13z"/>
<path d="M3260 3065 c0 -8 7 -15 15 -15 8 0 15 7 15 15 0 8 -7 15 -15 15 -8 0
-15 -7 -15 -15z"/>
<path d="M220 3050 c0 -11 7 -20 15 -20 8 0 15 9 15 20 0 11 -7 20 -15 20 -8
0 -15 -9 -15 -20z"/>
<path d="M3717 3063 c-4 -3 -7 -33 -7 -65 l0 -58 65 0 65 0 0 65 0 65 -58 0
c-32 0 -62 -3 -65 -7z"/>
<path d="M280 3030 c0 -27 3 -30 30 -30 27 0 30 3 30 30 0 27 -3 30 -30 30
-27 0 -30 -3 -30 -30z"/>
<path d="M460 3030 c0 -27 3 -30 30 -30 27 0 30 3 30 30 0 27 -3 30 -30 30
-27 0 -30 -3 -30 -30z"/>
<path d="M822 3033 c2 -22 9 -29 31 -31 24 -3 27 0 27 27 0 28 -3 31 -31 31
-27 0 -30 -3 -27 -27z"/>
<path d="M2590 3030 c0 -27 3 -30 30 -30 27 0 30 3 30 30 0 27 -3 30 -30 30
-27 0 -30 -3 -30 -30z"/>
<path d="M3022 3033 c2 -22 9 -29 31 -31 24 -3 27 0 27 27 0 28 -3 31 -31 31
-27 0 -30 -3 -27 -27z"/>
<path d="M4380 3040 c0 -13 7 -20 20 -20 13 0 20 7 20 20 0 13 -7 20 -20 20
-13 0 -20 -7 -20 -20z"/>
<path d="M3937 3034 c-14 -15 -6 -34 14 -34 14 0 19 5 17 17 -3 18 -20 27 -31
17z"/>
<path d="M380 3015 c0 -8 7 -15 15 -15 8 0 15 7 15 15 0 8 -7 15 -15 15 -8 0
-15 -7 -15 -15z"/>
<path d="M1140 3000 c0 -11 7 -20 15 -20 8 0 15 9 15 20 0 11 -7 20 -15 20 -8
0 -15 -9 -15 -20z"/>
<path d="M58 3005 c-3 -3 -3 -17 0 -30 3 -20 10 -25 33 -25 26 0 29 4 29 30 0
26 -4 30 -28 30 -16 0 -31 -2 -34 -5z"/>
<path d="M1897 3003 c-4 -3 -7 -19 -7 -35 0 -24 4 -28 30 -28 26 0 30 3 30 29
0 33 -33 54 -53 34z"/>
<path d="M3524 2997 c-3 -8 -4 -39 -2 -68 l3 -54 65 0 65 0 0 65 0 65 -63 3
c-47 2 -64 -1 -68 -11z"/>
<path d="M2720 2970 c0 -27 3 -30 30 -30 27 0 30 3 30 30 0 27 -3 30 -30 30
-27 0 -30 -3 -30 -30z"/>
<path d="M2920 2955 l0 -45 50 0 50 0 0 45 0 45 -50 0 -50 0 0 -45z"/>
<path d="M4102 2973 c2 -22 9 -29 31 -31 24 -3 27 0 27 27 0 28 -3 31 -31 31
-27 0 -30 -3 -27 -27z"/>
<path d="M1202 2973 c5 -26 38 -29 38 -4 0 15 -6 21 -21 21 -14 0 -19 -5 -17
-17z"/>
<path d="M2460 2970 c0 -15 5 -20 18 -18 9 2 17 10 17 18 0 8 -8 16 -17 18
-13 2 -18 -3 -18 -18z"/>
<path d="M3060 2925 l0 -65 60 0 60 0 0 65 0 65 -60 0 -60 0 0 -65z"/>
<path d="M3325 2980 c-8 -14 3 -30 21 -30 8 0 14 9 14 20 0 21 -24 28 -35 10z"/>
<path d="M200 2950 c0 -27 3 -30 30 -30 27 0 30 3 30 30 0 27 -3 30 -30 30
-27 0 -30 -3 -30 -30z"/>
<path d="M380 2930 l0 -50 50 0 50 0 0 50 0 50 -50 0 -50 0 0 -50z"/>
<path d="M2053 2973 c-21 -7 -15 -33 7 -33 11 0 20 6 20 14 0 18 -11 25 -27
19z"/>
<path d="M2092 2963 c2 -10 10 -18 18 -18 8 0 16 8 18 18 2 12 -3 17 -18 17
-15 0 -20 -5 -18 -17z"/>
<path d="M2340 2965 c0 -8 7 -15 15 -15 8 0 15 7 15 15 0 8 -7 15 -15 15 -8 0
-15 -7 -15 -15z"/>
<path d="M3200 2931 l0 -51 51 0 50 0 -3 48 -3 47 -47 3 -48 3 0 -50z"/>
<path d="M490 2950 c0 -11 7 -20 15 -20 8 0 15 9 15 20 0 11 -7 20 -15 20 -8
0 -15 -9 -15 -20z"/>
<path d="M730 2940 c0 -27 3 -30 30 -30 27 0 30 3 30 30 0 27 -3 30 -30 30
-27 0 -30 -3 -30 -30z"/>
<path d="M820 2940 c0 -29 2 -31 32 -28 27 2 33 7 33 28 0 21 -6 26 -33 28
-30 3 -32 1 -32 -28z"/>
<path d="M980 2940 c0 -27 3 -30 30 -30 27 0 30 3 30 30 0 27 -3 30 -30 30
-27 0 -30 -3 -30 -30z"/>
<path d="M1090 2920 l0 -50 45 0 45 0 0 50 0 50 -45 0 -45 0 0 -50z"/>
<path d="M2530 2955 c0 -8 7 -15 15 -15 8 0 15 7 15 15 0 8 -7 15 -15 15 -8 0
-15 -7 -15 -15z"/>
<path d="M2810 2926 c0 -43 -1 -45 -32 -48 -32 -3 -33 -5 -33 -48 0 -42 -2
-45 -29 -50 -25 -4 -28 -10 -31 -47 l-3 -41 45 -4 c24 -2 46 -1 49 1 2 2 4 24
4 48 0 41 1 43 30 43 29 0 30 1 30 49 0 48 1 50 28 48 26 -2 27 1 30 46 l3 47
-45 0 -46 0 0 -44z"/>
<path d="M305 2950 c-8 -14 3 -30 21 -30 8 0 14 9 14 20 0 21 -24 28 -35 10z"/>
<path d="M2272 2933 c5 -25 28 -28 28 -4 0 12 -6 21 -16 21 -9 0 -14 -7 -12
-17z"/>
<path d="M3920 2920 c0 -27 3 -30 30 -30 27 0 30 3 30 30 0 27 -3 30 -30 30
-27 0 -30 -3 -30 -30z"/>
<path d="M1842 2923 c5 -26 38 -29 38 -4 0 15 -6 21 -21 21 -14 0 -19 -5 -17
-17z"/>
<path d="M2725 2919 c-10 -15 1 -23 20 -15 9 3 13 10 10 16 -8 13 -22 13 -30
-1z"/>
<path d="M3430 2900 c0 -27 3 -30 30 -30 27 0 30 3 30 30 0 27 -3 30 -30 30
-27 0 -30 -3 -30 -30z"/>
<path d="M2007 2913 c-13 -12 -7 -33 8 -33 8 0 15 9 15 20 0 20 -11 26 -23 13z"/>
<path d="M2209 2914 c-1 -2 -2 -14 -2 -26 -1 -18 5 -24 26 -26 23 -3 27 0 27
21 0 18 -6 26 -25 29 -14 3 -25 4 -26 2z"/>
<path d="M3325 2910 c-8 -14 3 -30 21 -30 8 0 14 9 14 20 0 21 -24 28 -35 10z"/>
<path d="M3670 2865 l0 -45 45 0 45 0 0 45 0 45 -45 0 -45 0 0 -45z"/>
<path d="M3820 2895 c0 -8 7 -15 15 -15 8 0 15 7 15 15 0 8 -7 15 -15 15 -8 0
-15 -7 -15 -15z"/>
<path d="M4250 2880 c0 -27 3 -30 30 -30 27 0 30 3 30 30 0 27 -3 30 -30 30
-27 0 -30 -3 -30 -30z"/>
<path d="M140 2885 c0 -8 7 -15 15 -15 8 0 15 7 15 15 0 8 -7 15 -15 15 -8 0
-15 -7 -15 -15z"/>
<path d="M272 2883 c5 -26 38 -29 38 -4 0 15 -6 21 -21 21 -14 0 -19 -5 -17
-17z"/>
<path d="M2470 2885 c0 -8 7 -15 15 -15 8 0 15 7 15 15 0 8 -7 15 -15 15 -8 0
-15 -7 -15 -15z"/>
<path d="M730 2860 c0 -27 3 -30 30 -30 27 0 30 3 30 30 0 27 -3 30 -30 30
-27 0 -30 -3 -30 -30z"/>
<path d="M2610 2845 l0 -45 45 0 45 0 0 45 0 45 -45 0 -45 0 0 -45z"/>
<path d="M485 2870 c-8 -14 3 -30 21 -30 8 0 14 9 14 20 0 21 -24 28 -35 10z"/>
<path d="M2270 2865 c0 -8 7 -15 15 -15 8 0 15 7 15 15 0 8 -7 15 -15 15 -8 0
-15 -7 -15 -15z"/>
<path d="M397 2863 c-14 -13 -6 -33 13 -33 13 0 20 7 20 20 0 19 -20 27 -33
13z"/>
<path d="M970 2825 l0 -45 45 0 45 0 0 45 0 45 -45 0 -45 0 0 -45z"/>
<path d="M1200 2855 c0 -8 9 -15 20 -15 11 0 20 7 20 15 0 8 -9 15 -20 15 -11
0 -20 -7 -20 -15z"/>
<path d="M3278 2862 c-38 -3 -38 -4 -38 -48 l0 -44 45 0 45 0 0 44 c0 25 -3
46 -7 48 -5 2 -25 2 -45 0z"/>
<path d="M4477 2864 c-14 -15 -6 -34 14 -34 14 0 19 5 17 17 -3 18 -20 27 -31
17z"/>
<path d="M4100 2840 c0 -15 5 -20 18 -18 9 2 17 10 17 18 0 8 -8 16 -17 18
-13 2 -18 -3 -18 -18z"/>
<path d="M219 2845 c0 -3 -1 -31 -1 -62 l-1 -58 62 -3 61 -3 0 66 0 65 -60 0
c-33 0 -60 -2 -61 -5z"/>
<path d="M1860 2835 c0 -8 7 -15 15 -15 8 0 15 7 15 15 0 8 -7 15 -15 15 -8 0
-15 -7 -15 -15z"/>
<path d="M3075 2840 c-8 -14 3 -30 21 -30 8 0 14 9 14 20 0 21 -24 28 -35 10z"/>
<path d="M3544 2839 c-3 -6 -2 -15 4 -21 13 -13 32 -2 32 18 0 16 -26 19 -36
3z"/>
<path d="M1070 2795 l0 -45 50 0 50 0 0 45 0 45 -50 0 -50 0 0 -45z"/>
<path d="M1190 2778 l0 -48 46 0 45 0 -3 48 -3 47 -42 1 -43 1 0 -49z"/>
<path d="M2240 2810 c0 -15 5 -20 18 -18 9 2 17 10 17 18 0 8 -8 16 -17 18
-13 2 -18 -3 -18 -18z"/>
<path d="M2860 2810 c0 -13 7 -20 20 -20 13 0 20 7 20 20 0 13 -7 20 -20 20
-13 0 -20 -7 -20 -20z"/>
<path d="M380 2777 c0 -24 2 -46 4 -48 3 -3 23 -3 45 -1 l41 4 0 44 0 44 -45
0 -45 0 0 -43z"/>
<path d="M3960 2805 c0 -8 9 -15 20 -15 11 0 20 7 20 15 0 8 -9 15 -20 15 -11
0 -20 -7 -20 -15z"/>
<path d="M2130 2760 l0 -51 48 3 47 3 0 45 0 45 -47 3 -48 3 0 -51z"/>
<path d="M2050 2785 c0 -8 9 -15 20 -15 11 0 20 7 20 15 0 8 -9 15 -20 15 -11
0 -20 -7 -20 -15z"/>
<path d="M3120 2780 c0 -15 5 -20 18 -18 9 2 17 10 17 18 0 8 -8 16 -17 18
-13 2 -18 -3 -18 -18z"/>
<path d="M3480 2735 l0 -65 58 0 c32 0 61 2 63 4 2 2 2 32 1 65 l-4 61 -59 0
-59 0 0 -65z"/>
<path d="M3802 2783 c2 -10 10 -18 18 -18 8 0 16 8 18 18 2 12 -3 17 -18 17
-15 0 -20 -5 -18 -17z"/>
<path d="M2497 2783 c-4 -3 -7 -17 -7 -30 0 -19 5 -23 30 -23 27 0 30 3 30 30
0 25 -4 30 -23 30 -13 0 -27 -3 -30 -7z"/>
<path d="M3350 2760 c0 -25 4 -30 25 -30 21 0 25 5 25 30 0 25 -4 30 -25 30
-21 0 -25 -5 -25 -30z"/>
<path d="M3660 2764 c0 -9 5 -14 12 -12 18 6 21 28 4 28 -9 0 -16 -7 -16 -16z"/>
<path d="M80 2740 c0 -27 3 -30 30 -30 27 0 30 3 30 30 0 27 -3 30 -30 30 -27
0 -30 -3 -30 -30z"/>
<path d="M512 2753 c2 -10 10 -18 18 -18 8 0 16 8 18 18 2 12 -3 17 -18 17
-15 0 -20 -5 -18 -17z"/>
<path d="M1955 2758 c-2 -7 -6 -30 -10 -50 -5 -34 -4 -38 16 -38 16 0 20 5 16
20 -4 15 0 20 14 20 14 0 19 7 19 30 0 25 -4 30 -25 30 -14 0 -27 -6 -30 -12z"/>
<path d="M2272 2754 c4 -21 22 -23 26 -1 2 10 -3 17 -13 17 -10 0 -15 -6 -13
-16z"/>
<path d="M2602 2753 c2 -10 10 -18 18 -18 8 0 16 8 18 18 2 12 -3 17 -18 17
-15 0 -20 -5 -18 -17z"/>
<path d="M970 2731 c0 -28 3 -31 31 -31 27 0 30 3 27 28 -2 21 -9 28 -30 30
-25 3 -28 0 -28 -27z"/>
<path d="M2030 2710 c0 -38 4 -50 15 -50 8 0 15 -7 15 -15 0 -9 7 -18 15 -21
8 -4 15 -17 15 -29 0 -29 13 -38 40 -30 13 4 20 15 20 31 0 19 -5 24 -25 24
-18 0 -25 5 -25 20 0 11 5 20 10 20 6 0 10 23 10 50 l0 50 -45 0 -45 0 0 -50z"/>
<path d="M3170 2729 c0 -27 3 -30 28 -27 21 2 28 9 30 31 3 24 0 27 -27 27
-28 0 -31 -3 -31 -31z"/>
<path d="M905 2740 c-8 -14 3 -30 21 -30 8 0 14 9 14 20 0 21 -24 28 -35 10z"/>
<path d="M570 2720 c0 -13 7 -20 20 -20 17 0 20 -7 20 -45 l0 -45 45 0 45 0 0
45 0 45 -45 0 c-38 0 -45 3 -45 20 0 13 -7 20 -20 20 -13 0 -20 -7 -20 -20z"/>
<path d="M2820 2720 c0 -23 25 -27 33 -6 7 16 -1 26 -20 26 -7 0 -13 -9 -13
-20z"/>
<path d="M1060 2701 c0 -28 3 -31 31 -31 27 0 30 3 27 28 -2 21 -9 28 -30 30
-25 3 -28 0 -28 -27z"/>
<path d="M3900 2715 c0 -8 7 -15 15 -15 8 0 15 7 15 15 0 8 -7 15 -15 15 -8 0
-15 -7 -15 -15z"/>
<path d="M4115 2720 c-1 -3 -2 -16 -1 -30 1 -21 6 -25 31 -25 26 0 30 3 30 29
0 25 -4 29 -28 30 -16 1 -30 -1 -32 -4z"/>
<path d="M1200 2690 c0 -27 3 -30 30 -30 27 0 30 3 30 30 0 27 -3 30 -30 30
-27 0 -30 -3 -30 -30z"/>
<path d="M3240 2675 l0 -45 50 0 50 0 0 45 0 45 -50 0 -50 0 0 -45z"/>
<path d="M350 2691 c0 -15 6 -21 21 -21 14 0 19 5 17 17 -5 26 -38 29 -38 4z"/>
<path d="M1142 2693 c2 -10 10 -18 18 -18 8 0 16 8 18 18 2 12 -3 17 -18 17
-15 0 -20 -5 -18 -17z"/>
<path d="M2500 2690 c0 -11 7 -20 15 -20 8 0 15 9 15 20 0 11 -7 20 -15 20 -8
0 -15 -9 -15 -20z"/>
<path d="M2580 2665 l0 -45 40 0 40 0 0 45 0 45 -40 0 -40 0 0 -45z"/>
<path d="M250 2680 c0 -13 5 -20 13 -17 6 2 12 10 12 17 0 7 -6 15 -12 18 -8
2 -13 -5 -13 -18z"/>
<path d="M520 2680 c0 -11 7 -20 15 -20 8 0 15 9 15 20 0 11 -7 20 -15 20 -8
0 -15 -9 -15 -20z"/>
<path d="M2910 2675 c0 -8 9 -15 20 -15 11 0 20 7 20 15 0 8 -9 15 -20 15 -11
0 -20 -7 -20 -15z"/>
<path d="M3630 2675 c0 -8 7 -15 15 -15 8 0 15 7 15 15 0 8 -7 15 -15 15 -8 0
-15 -7 -15 -15z"/>
<path d="M410 2657 c0 -31 5 -35 35 -29 18 3 25 11 25 28 0 20 -5 24 -30 24
-25 0 -30 -4 -30 -23z"/>
<path d="M900 2650 c0 -27 3 -30 30 -30 27 0 30 3 30 30 0 27 -3 30 -30 30
-27 0 -30 -3 -30 -30z"/>
<path d="M2994 2666 c-12 -31 0 -51 31 -51 27 0 30 3 30 30 0 25 -4 30 -28 33
-17 2 -29 -2 -33 -12z"/>
<path d="M3090 2655 c0 -21 5 -25 30 -25 25 0 30 4 30 25 0 21 -5 25 -30 25
-25 0 -30 -4 -30 -25z"/>
<path d="M3360 2660 c0 -13 7 -20 20 -20 13 0 20 7 20 20 0 13 -7 20 -20 20
-13 0 -20 -7 -20 -20z"/>
<path d="M3420 2621 l0 -50 -42 -3 -43 -3 -3 -47 -3 -48 45 0 46 0 0 50 0 50
45 0 45 0 0 44 c0 46 -11 56 -67 56 -21 0 -23 -5 -23 -49z"/>
<path d="M4290 2640 c0 -27 3 -30 30 -30 27 0 30 3 30 30 0 27 -3 30 -30 30
-27 0 -30 -3 -30 -30z"/>
<path d="M110 2621 c0 -38 1 -39 41 -43 22 -2 42 -2 45 1 2 2 4 22 4 43 l0 38
-45 0 -45 0 0 -39z"/>
<path d="M982 2643 c2 -10 10 -18 18 -18 8 0 16 8 18 18 2 12 -3 17 -18 17
-15 0 -20 -5 -18 -17z"/>
<path d="M2414 2646 c-3 -8 -4 -27 -2 -43 3 -26 7 -28 51 -31 l47 -3 0 45 0
46 -45 0 c-30 0 -47 -5 -51 -14z"/>
<path d="M2850 2630 c0 -13 7 -20 20 -20 13 0 20 7 20 20 0 13 -7 20 -20 20
-13 0 -20 -7 -20 -20z"/>
<path d="M1117 2634 c-13 -13 -7 -24 14 -24 11 0 19 5 17 12 -5 14 -22 21 -31
12z"/>
<path d="M1970 2610 c0 -27 3 -30 30 -30 27 0 30 3 30 30 0 27 -3 30 -30 30
-27 0 -30 -3 -30 -30z"/>
<path d="M1040 2609 c0 -14 5 -19 17 -17 26 5 29 38 4 38 -15 0 -21 -6 -21
-21z"/>
<path d="M1870 2615 c0 -8 7 -15 15 -15 8 0 15 7 15 15 0 8 -7 15 -15 15 -8 0
-15 -7 -15 -15z"/>
<path d="M2800 2615 c-10 -12 -10 -15 4 -15 9 0 16 7 16 15 0 8 -2 15 -4 15
-2 0 -9 -7 -16 -15z"/>
<path d="M2904 2616 c-12 -31 0 -51 31 -51 27 0 30 3 30 30 0 25 -4 30 -28 33
-17 2 -29 -2 -33 -12z"/>
<path d="M3882 2613 c2 -10 10 -18 18 -18 8 0 16 8 18 18 2 12 -3 17 -18 17
-15 0 -20 -5 -18 -17z"/>
<path d="M453 2613 c-20 -4 -23 -11 -23 -49 l0 -44 45 0 45 0 0 50 c0 54 -3
55 -67 43z"/>
<path d="M3560 2576 l0 -46 51 0 50 0 -3 43 -3 42 -47 3 -48 3 0 -45z"/>
<path d="M3720 2599 c0 -14 5 -19 17 -17 26 5 29 38 4 38 -15 0 -21 -6 -21
-21z"/>
<path d="M730 2590 c0 -11 6 -20 13 -20 19 0 27 10 20 26 -8 21 -33 17 -33 -6z"/>
<path d="M2522 2593 c2 -10 10 -18 18 -18 8 0 16 8 18 18 2 12 -3 17 -18 17
-15 0 -20 -5 -18 -17z"/>
<path d="M940 2585 c0 -8 9 -15 20 -15 13 0 18 5 14 15 -4 8 -12 15 -20 15 -8
0 -14 -7 -14 -15z"/>
<path d="M204 2577 c-3 -9 -4 -30 -2 -49 3 -32 5 -33 51 -36 l48 -3 -3 48 -3
48 -43 3 c-30 2 -44 -1 -48 -11z"/>
<path d="M1690 2575 c0 -8 7 -15 15 -15 8 0 15 7 15 15 0 8 -7 15 -15 15 -8 0
-15 -7 -15 -15z"/>
<path d="M2984 2577 c-3 -9 -4 -30 -2 -49 3 -32 4 -33 48 -33 l45 0 0 45 0 45
-43 3 c-30 2 -44 -1 -48 -11z"/>
<path d="M3100 2576 c0 -8 7 -16 15 -20 10 -4 15 1 15 14 0 11 -7 20 -15 20
-8 0 -15 -6 -15 -14z"/>
<path d="M3150 2545 l0 -45 40 0 40 0 0 45 0 45 -40 0 -40 0 0 -45z"/>
<path d="M3770 2541 l0 -51 46 0 45 0 -3 48 -3 47 -42 3 -43 3 0 -50z"/>
<path d="M650 2567 c0 -17 20 -37 37 -37 7 0 13 11 13 25 0 20 -5 25 -25 25
-14 0 -25 -6 -25 -13z"/>
<path d="M2750 2560 c0 -11 7 -20 15 -20 8 0 15 9 15 20 0 11 -7 20 -15 20 -8
0 -15 -9 -15 -20z"/>
<path d="M1880 2540 c0 -27 3 -30 30 -30 27 0 30 3 30 30 0 27 -3 30 -30 30
-27 0 -30 -3 -30 -30z"/>
<path d="M977 2553 c-17 -16 -4 -44 37 -77 46 -38 66 -45 66 -22 0 7 3 34 6
60 l7 46 -55 0 c-30 0 -58 -3 -61 -7z"/>
<path d="M2794 2546 c-3 -8 -4 -29 -2 -48 3 -32 4 -33 48 -33 l45 0 3 48 3 47
-46 0 c-30 0 -47 -5 -51 -14z"/>
<path d="M1680 2502 l0 -49 45 -1 45 -2 0 50 0 50 -45 0 -45 0 0 -48z"/>
<path d="M1810 2525 c0 -16 6 -25 15 -25 10 0 15 -11 15 -35 0 -32 2 -35 30
-35 27 0 30 3 30 30 0 23 -4 30 -20 30 -16 0 -20 7 -20 30 0 25 -4 30 -25 30
-20 0 -25 -5 -25 -25z"/>
<path d="M2937 2544 c-14 -15 -6 -34 14 -34 14 0 19 5 17 17 -3 18 -20 27 -31
17z"/>
<path d="M3460 2530 c0 -15 5 -20 18 -18 9 2 17 10 17 18 0 8 -8 16 -17 18
-13 2 -18 -3 -18 -18z"/>
<path d="M580 2510 c0 -11 6 -20 13 -20 19 0 27 10 20 26 -8 21 -33 17 -33 -6z"/>
<path d="M2522 2493 c2 -10 10 -18 18 -18 8 0 16 8 18 18 2 12 -3 17 -18 17
-15 0 -20 -5 -18 -17z"/>
<path d="M3523 2502 c-18 -3 -23 -10 -23 -33 0 -26 3 -29 30 -29 27 0 30 3 30
29 0 34 -6 39 -37 33z"/>
<path d="M3600 2490 c0 -11 7 -20 15 -20 8 0 15 9 15 20 0 11 -7 20 -15 20 -8
0 -15 -9 -15 -20z"/>
<path d="M4152 2493 c5 -26 38 -29 38 -4 0 15 -6 21 -21 21 -14 0 -19 -5 -17
-17z"/>
<path d="M350 2480 c0 -11 7 -20 15 -20 8 0 15 6 15 14 0 8 -7 16 -15 20 -10
4 -15 -1 -15 -14z"/>
<path d="M1927 2494 c-14 -14 -7 -35 11 -32 9 2 17 10 17 17 0 16 -18 25 -28
15z"/>
<path d="M3260 2480 c0 -11 7 -20 15 -20 8 0 15 9 15 20 0 11 -7 20 -15 20 -8
0 -15 -9 -15 -20z"/>
<path d="M50 2475 c0 -8 9 -15 20 -15 11 0 20 7 20 15 0 8 -9 15 -20 15 -11 0
-20 -7 -20 -15z"/>
<path d="M3920 2460 c0 -27 3 -30 30 -30 27 0 30 3 30 30 0 27 -3 30 -30 30
-27 0 -30 -3 -30 -30z"/>
<path d="M3000 2451 c0 -29 3 -31 36 -31 33 0 35 2 32 28 -2 22 -8 28 -35 30
-31 3 -33 1 -33 -27z"/>
<path d="M3740 2455 c0 -8 7 -15 15 -15 8 0 15 7 15 15 0 8 -7 15 -15 15 -8 0
-15 -7 -15 -15z"/>
<path d="M122 2433 c2 -22 9 -29 31 -31 24 -3 27 0 27 27 0 28 -3 31 -31 31
-27 0 -30 -3 -27 -27z"/>
<path d="M804 2451 c-2 -2 -4 -31 -4 -63 l0 -58 60 0 61 0 -3 58 -3 57 -53 5
c-29 3 -55 4 -58 1z"/>
<path d="M2409 2456 c-2 -3 -3 -25 -1 -51 l4 -46 42 3 41 3 3 48 3 47 -44 0
c-24 0 -46 -2 -48 -4z"/>
<path d="M3120 2445 c0 -8 7 -15 15 -15 8 0 15 7 15 15 0 8 -7 15 -15 15 -8 0
-15 -7 -15 -15z"/>
<path d="M219 2445 c0 -3 -1 -31 -1 -62 l-1 -58 62 -3 61 -3 0 66 0 65 -60 0
c-33 0 -60 -2 -61 -5z"/>
<path d="M570 2420 c0 -27 3 -30 30 -30 27 0 30 3 30 30 0 27 -3 30 -30 30
-27 0 -30 -3 -30 -30z"/>
<path d="M2590 2430 c0 -15 5 -20 18 -18 9 2 17 10 17 18 0 8 -8 16 -17 18
-13 2 -18 -3 -18 -18z"/>
<path d="M2870 2405 l0 -45 45 0 45 0 0 45 0 45 -45 0 -45 0 0 -45z"/>
<path d="M3370 2405 l0 -45 50 0 50 0 0 45 0 45 -50 0 -50 0 0 -45z"/>
<path d="M1690 2409 c0 -27 3 -30 28 -27 21 2 28 9 30 31 3 24 0 27 -27 27
-28 0 -31 -3 -31 -31z"/>
<path d="M2327 2423 c-13 -12 -7 -23 13 -23 11 0 20 7 20 15 0 15 -21 21 -33
8z"/>
<path d="M360 2401 c0 -15 6 -21 21 -21 25 0 22 33 -4 38 -12 2 -17 -3 -17
-17z"/>
<path d="M2800 2399 c0 -24 23 -21 28 4 2 10 -3 17 -12 17 -10 0 -16 -9 -16
-21z"/>
<path d="M3270 2380 c0 -28 3 -30 35 -30 32 0 35 2 35 30 0 28 -3 30 -35 30
-32 0 -35 -2 -35 -30z"/>
<path d="M3590 2385 c0 -8 9 -15 20 -15 11 0 20 7 20 15 0 8 -9 15 -20 15 -11
0 -20 -7 -20 -15z"/>
<path d="M2120 2360 c0 -28 3 -30 35 -30 32 0 35 2 35 30 0 28 -3 30 -35 30
-32 0 -35 -2 -35 -30z"/>
<path d="M2540 2375 c0 -8 7 -15 15 -15 8 0 15 7 15 15 0 8 -7 15 -15 15 -8 0
-15 -7 -15 -15z"/>
<path d="M3030 2345 l0 -45 45 0 45 0 0 45 0 45 -45 0 -45 0 0 -45z"/>
<path d="M980 2365 c0 -8 7 -15 15 -15 8 0 15 7 15 15 0 8 -7 15 -15 15 -8 0
-15 -7 -15 -15z"/>
<path d="M2260 2315 l0 -66 61 3 62 3 0 60 0 60 -62 3 -61 3 0 -66z"/>
<path d="M1977 2363 c-4 -3 -7 -24 -7 -45 l0 -38 50 0 50 0 0 45 0 45 -43 0
c-24 0 -47 -3 -50 -7z"/>
<path d="M2207 2354 c-14 -15 -6 -34 14 -34 14 0 19 5 17 17 -3 18 -20 27 -31
17z"/>
<path d="M414 2336 c-12 -31 0 -51 31 -51 30 0 34 11 20 53 -6 17 -44 15 -51
-2z"/>
<path d="M937 2344 c-14 -15 -6 -34 14 -34 14 0 19 5 17 17 -3 18 -20 27 -31
17z"/>
<path d="M2840 2310 c0 -27 3 -30 30 -30 27 0 30 3 30 30 0 27 -3 30 -30 30
-27 0 -30 -3 -30 -30z"/>
<path d="M652 2303 c2 -20 9 -29 24 -31 17 -2 22 3 26 27 4 29 2 31 -24 31
-26 0 -29 -3 -26 -27z"/>
<path d="M2420 2300 c0 -27 3 -30 30 -30 27 0 30 3 30 30 0 27 -3 30 -30 30
-27 0 -30 -3 -30 -30z"/>
<path d="M3205 2320 c-7 -12 2 -30 16 -30 5 0 9 9 9 20 0 21 -15 27 -25 10z"/>
<path d="M3470 2310 c0 -11 7 -20 15 -20 8 0 15 9 15 20 0 11 -7 20 -15 20 -8
0 -15 -9 -15 -20z"/>
<path d="M3750 2300 c0 -27 3 -30 30 -30 27 0 30 3 30 30 0 27 -3 30 -30 30
-27 0 -30 -3 -30 -30z"/>
<path d="M2780 2301 c0 -15 6 -21 21 -21 14 0 19 5 17 17 -5 26 -38 29 -38 4z"/>
<path d="M3360 2300 c0 -15 5 -20 18 -18 9 2 17 10 17 18 0 8 -8 16 -17 18
-13 2 -18 -3 -18 -18z"/>
<path d="M780 2295 c0 -8 9 -15 20 -15 11 0 20 7 20 15 0 8 -9 15 -20 15 -11
0 -20 -7 -20 -15z"/>
<path d="M2640 2260 l0 -51 48 3 47 3 0 45 -1 45 -47 3 -47 3 0 -51z"/>
<path d="M350 2285 c0 -8 7 -15 15 -15 8 0 15 7 15 15 0 8 -7 15 -15 15 -8 0
-15 -7 -15 -15z"/>
<path d="M2512 2273 c2 -22 8 -28 28 -28 20 0 26 6 28 28 3 24 0 27 -28 27
-28 0 -31 -3 -28 -27z"/>
<path d="M3250 2255 l0 -45 45 0 45 0 0 45 0 45 -45 0 -45 0 0 -45z"/>
<path d="M50 2275 c0 -8 9 -15 20 -15 11 0 20 7 20 15 0 8 -9 15 -20 15 -11 0
-20 -7 -20 -15z"/>
<path d="M170 2271 c0 -15 6 -21 21 -21 14 0 19 5 17 17 -5 26 -38 29 -38 4z"/>
<path d="M2094 2275 c-11 -27 4 -45 36 -45 27 0 30 3 30 30 0 27 -3 30 -30 30
-18 0 -33 -6 -36 -15z"/>
<path d="M3160 2275 c0 -8 9 -15 20 -15 11 0 20 7 20 15 0 8 -9 15 -20 15 -11
0 -20 -7 -20 -15z"/>
<path d="M3630 2275 c0 -8 9 -15 20 -15 11 0 20 7 20 15 0 8 -9 15 -20 15 -11
0 -20 -7 -20 -15z"/>
<path d="M839 2275 c-9 -38 -2 -50 29 -53 30 -3 32 -1 32 27 0 28 -3 31 -30
31 -16 0 -30 -2 -31 -5z"/>
<path d="M2190 2265 c0 -8 7 -15 15 -15 8 0 15 7 15 15 0 8 -7 15 -15 15 -8 0
-15 -7 -15 -15z"/>
<path d="M4130 2255 c0 -20 5 -25 25 -25 20 0 25 5 25 25 0 20 -5 25 -25 25
-20 0 -25 -5 -25 -25z"/>
<path d="M1980 2249 c0 -24 23 -21 28 4 2 10 -3 17 -12 17 -10 0 -16 -9 -16
-21z"/>
<path d="M3360 2240 c0 -27 3 -30 30 -30 27 0 30 3 30 30 0 27 -3 30 -30 30
-27 0 -30 -3 -30 -30z"/>
<path d="M940 2236 c0 -14 0 -29 0 -33 0 -5 12 -8 28 -8 23 0 27 4 27 30 0 25
-4 30 -27 33 -24 3 -28 0 -28 -22z"/>
<path d="M1760 2225 c0 -32 2 -35 30 -35 28 0 30 3 30 35 0 32 -2 35 -30 35
-28 0 -30 -3 -30 -35z"/>
<path d="M2762 2233 c2 -22 8 -28 28 -28 20 0 26 6 28 28 3 24 0 27 -28 27
-28 0 -31 -3 -28 -27z"/>
<path d="M3520 2245 c0 -8 9 -15 20 -15 11 0 20 7 20 15 0 8 -9 15 -20 15 -11
0 -20 -7 -20 -15z"/>
<path d="M250 2219 c0 -27 3 -30 28 -27 21 2 28 9 30 31 3 24 0 27 -27 27 -28
0 -31 -3 -31 -31z"/>
<path d="M430 2205 l0 -45 45 0 45 0 0 45 0 45 -45 0 -45 0 0 -45z"/>
<path d="M2440 2230 c0 -13 7 -20 20 -20 13 0 20 7 20 20 0 13 -7 20 -20 20
-13 0 -20 -7 -20 -20z"/>
<path d="M2585 2240 c-8 -14 3 -30 21 -30 8 0 14 9 14 20 0 21 -24 28 -35 10z"/>
<path d="M2970 2200 l0 -50 45 0 45 0 0 50 0 50 -45 0 -45 0 0 -50z"/>
<path d="M3920 2220 c0 -27 3 -30 30 -30 27 0 30 3 30 30 0 27 -3 30 -30 30
-27 0 -30 -3 -30 -30z"/>
<path d="M1662 2223 c2 -10 10 -18 18 -18 8 0 16 8 18 18 2 12 -3 17 -18 17
-15 0 -20 -5 -18 -17z"/>
<path d="M2230 2210 c0 -27 3 -30 30 -30 27 0 30 3 30 30 0 27 -3 30 -30 30
-27 0 -30 -3 -30 -30z"/>
<path d="M2330 2195 l0 -45 45 0 45 0 0 45 0 45 -45 0 -45 0 0 -45z"/>
<path d="M2840 2185 l0 -45 45 0 45 0 0 45 0 45 -45 0 -45 0 0 -45z"/>
<path d="M3700 2199 c0 -27 3 -30 28 -27 21 2 28 9 30 31 3 24 0 27 -27 27
-28 0 -31 -3 -31 -31z"/>
<path d="M1060 2205 c0 -8 7 -15 15 -15 8 0 15 7 15 15 0 8 -7 15 -15 15 -8 0
-15 -7 -15 -15z"/>
<path d="M1982 2188 c2 -27 7 -33 28 -33 21 0 26 6 28 33 3 30 1 32 -28 32
-29 0 -31 -2 -28 -32z"/>
<path d="M2080 2191 c0 -28 3 -31 31 -31 27 0 30 3 27 28 -2 21 -9 28 -30 30
-25 3 -28 0 -28 -27z"/>
<path d="M3120 2205 c0 -8 7 -15 15 -15 8 0 15 7 15 15 0 8 -7 15 -15 15 -8 0
-15 -7 -15 -15z"/>
<path d="M330 2180 c0 -27 3 -30 30 -30 27 0 30 3 30 30 0 27 -3 30 -30 30
-27 0 -30 -3 -30 -30z"/>
<path d="M544 2196 c-11 -29 1 -51 29 -54 25 -3 27 -1 27 32 0 32 -3 36 -25
36 -14 0 -28 -6 -31 -14z"/>
<path d="M2170 2195 c0 -8 9 -15 20 -15 11 0 20 7 20 15 0 8 -9 15 -20 15 -11
0 -20 -7 -20 -15z"/>
<path d="M2484 2197 c-3 -9 -4 -30 -2 -49 3 -32 4 -33 48 -33 l45 0 0 45 0 45
-43 3 c-30 2 -44 -1 -48 -11z"/>
<path d="M140 2170 c0 -27 3 -30 30 -30 27 0 30 3 30 30 0 27 -3 30 -30 30
-27 0 -30 -3 -30 -30z"/>
<path d="M1110 2125 l0 -65 60 0 60 0 0 65 0 65 -60 0 -60 0 0 -65z"/>
<path d="M1590 2166 c0 -21 -4 -24 -27 -23 -24 2 -28 -2 -31 -27 -3 -27 -2
-28 27 -24 25 4 31 1 31 -14 0 -16 9 -18 65 -18 l66 0 -3 63 -3 62 -62 3 c-61
3 -63 2 -63 -22z"/>
<path d="M2760 2160 c0 -13 7 -20 20 -20 13 0 20 7 20 20 0 13 -7 20 -20 20
-13 0 -20 -7 -20 -20z"/>
<path d="M3437 2163 c-4 -3 -7 -26 -7 -50 l0 -43 45 0 45 0 0 50 0 50 -38 0
c-21 0 -42 -3 -45 -7z"/>
<path d="M1262 2143 c5 -25 28 -28 28 -4 0 12 -6 21 -16 21 -9 0 -14 -7 -12
-17z"/>
<path d="M3560 2141 c0 -15 6 -21 21 -21 25 0 22 33 -4 38 -12 2 -17 -3 -17
-17z"/>
<path d="M3068 2143 c-15 -4 -18 -16 -17 -69 1 -57 3 -64 21 -64 15 0 19 5 15
19 -4 16 1 20 27 23 30 3 31 5 31 48 0 43 -1 45 -30 47 -16 0 -38 -1 -47 -4z"/>
<path d="M3270 2105 l0 -45 40 0 40 0 0 45 0 45 -40 0 -40 0 0 -45z"/>
<path d="M2050 2121 c0 -15 6 -21 21 -21 25 0 22 33 -4 38 -12 2 -17 -3 -17
-17z"/>
<path d="M2670 2115 c0 -21 5 -25 30 -25 25 0 30 4 30 25 0 21 -5 25 -30 25
-25 0 -30 -4 -30 -25z"/>
<path d="M240 2115 c0 -8 9 -15 20 -15 11 0 20 7 20 15 0 8 -9 15 -20 15 -11
0 -20 -7 -20 -15z"/>
<path d="M1050 2115 c0 -8 7 -15 15 -15 8 0 15 7 15 15 0 8 -7 15 -15 15 -8 0
-15 -7 -15 -15z"/>
<path d="M2400 2115 c0 -8 7 -15 15 -15 8 0 15 7 15 15 0 8 -7 15 -15 15 -8 0
-15 -7 -15 -15z"/>
<path d="M2610 2109 c0 -25 33 -22 38 4 2 12 -3 17 -17 17 -15 0 -21 -6 -21
-21z"/>
<path d="M500 2100 c0 -15 5 -20 18 -18 9 2 17 10 17 18 0 8 -8 16 -17 18 -13
2 -18 -3 -18 -18z"/>
<path d="M2790 2075 l0 -45 45 0 45 0 0 45 0 45 -45 0 -45 0 0 -45z"/>
<path d="M2960 2105 c0 -8 9 -15 20 -15 11 0 20 7 20 15 0 8 -9 15 -20 15 -11
0 -20 -7 -20 -15z"/>
<path d="M3747 2104 c-14 -15 -6 -34 14 -34 14 0 19 5 17 17 -3 18 -20 27 -31
17z"/>
<path d="M2916 2085 c-4 -10 1 -15 14 -15 13 0 18 5 14 15 -4 8 -10 15 -14 15
-4 0 -10 -7 -14 -15z"/>
<path d="M120 2070 c0 -13 7 -20 20 -20 13 0 20 7 20 20 0 13 -7 20 -20 20
-13 0 -20 -7 -20 -20z"/>
<path d="M344 2077 c-3 -9 -4 -30 -2 -49 3 -32 4 -33 48 -33 l45 0 0 45 0 45
-43 3 c-30 2 -44 -1 -48 -11z"/>
<path d="M1280 2050 c0 -11 7 -20 15 -20 8 0 15 9 15 20 0 11 -7 20 -15 20 -8
0 -15 -9 -15 -20z"/>
<path d="M3180 2055 c0 -8 7 -15 15 -15 8 0 15 7 15 15 0 8 -7 15 -15 15 -8 0
-15 -7 -15 -15z"/>
<path d="M1580 2022 c0 -36 5 -40 35 -34 20 3 25 10 25 33 0 26 -4 29 -30 29
-26 0 -30 -4 -30 -28z"/>
<path d="M2460 2035 c0 -8 7 -15 15 -15 8 0 15 7 15 15 0 8 -7 15 -15 15 -8 0
-15 -7 -15 -15z"/>
<path d="M2930 2021 c0 -28 3 -31 31 -31 27 0 30 3 27 28 -2 21 -9 28 -30 30
-25 3 -28 0 -28 -27z"/>
<path d="M1160 2026 c0 -17 27 -29 35 -16 4 6 3 15 0 20 -9 15 -35 12 -35 -4z"/>
<path d="M1700 2025 c0 -8 9 -15 20 -15 11 0 20 7 20 15 0 8 -9 15 -20 15 -11
0 -20 -7 -20 -15z"/>
<path d="M230 2000 c0 -27 3 -30 30 -30 27 0 30 3 30 30 0 27 -3 30 -30 30
-27 0 -30 -3 -30 -30z"/>
<path d="M685 2020 c-8 -14 3 -30 21 -30 8 0 14 9 14 20 0 21 -24 28 -35 10z"/>
<path d="M822 2003 c2 -20 9 -29 26 -31 17 -3 22 -10 22 -33 0 -26 3 -29 30
-29 27 0 30 3 30 30 0 25 -4 30 -23 30 -20 0 -23 4 -19 30 4 29 3 30 -33 30
-34 0 -36 -2 -33 -27z"/>
<path d="M2530 2000 c0 -27 3 -30 30 -30 27 0 30 3 30 30 0 27 -3 30 -30 30
-27 0 -30 -3 -30 -30z"/>
<path d="M2670 2015 c0 -8 7 -15 15 -15 8 0 15 7 15 15 0 8 -7 15 -15 15 -8 0
-15 -7 -15 -15z"/>
<path d="M3450 2015 c0 -8 7 -15 15 -15 8 0 15 7 15 15 0 8 -7 15 -15 15 -8 0
-15 -7 -15 -15z"/>
<path d="M520 2005 c0 -8 7 -15 15 -15 8 0 15 7 15 15 0 8 -7 15 -15 15 -8 0
-15 -7 -15 -15z"/>
<path d="M740 2005 c0 -8 9 -15 20 -15 11 0 20 7 20 15 0 8 -9 15 -20 15 -11
0 -20 -7 -20 -15z"/>
<path d="M1222 1993 c2 -20 9 -29 26 -31 19 -3 22 1 22 27 0 27 -4 31 -26 31
-22 0 -25 -4 -22 -27z"/>
<path d="M940 1990 c0 -15 5 -20 18 -18 9 2 17 10 17 18 0 8 -8 16 -17 18 -13
2 -18 -3 -18 -18z"/>
<path d="M2014 1995 c-10 -25 4 -45 31 -45 21 0 25 5 25 30 0 25 -4 30 -25 30
-14 0 -28 -7 -31 -15z"/>
<path d="M3337 2003 c-4 -3 -7 -17 -7 -30 0 -19 5 -23 30 -23 27 0 30 3 30 30
0 25 -4 30 -23 30 -13 0 -27 -3 -30 -7z"/>
<path d="M570 1957 l0 -43 43 0 42 1 3 43 3 42 -45 0 -46 0 0 -43z"/>
<path d="M2750 1944 l0 -45 43 4 c41 4 42 4 45 45 l3 42 -45 0 -46 0 0 -46z"/>
<path d="M2100 1949 c0 -25 4 -29 29 -29 21 0 30 -6 34 -21 5 -18 12 -20 49
-17 l43 4 3 47 3 47 -80 -1 -81 -1 0 -29z"/>
<path d="M2272 1953 c2 -22 9 -29 31 -31 24 -3 27 0 27 27 0 28 -3 31 -31 31
-27 0 -30 -3 -27 -27z"/>
<path d="M2930 1960 c0 -15 5 -20 18 -18 9 2 17 10 17 18 0 8 -8 16 -17 18
-13 2 -18 -3 -18 -18z"/>
<path d="M3120 1960 c0 -11 7 -20 15 -20 8 0 15 9 15 20 0 11 -7 20 -15 20 -8
0 -15 -9 -15 -20z"/>
<path d="M3615 1970 c-8 -14 3 -30 21 -30 8 0 14 9 14 20 0 21 -24 28 -35 10z"/>
<path d="M470 1950 c0 -11 7 -20 15 -20 8 0 15 9 15 20 0 11 -7 20 -15 20 -8
0 -15 -9 -15 -20z"/>
<path d="M730 1940 c0 -27 3 -30 30 -30 27 0 30 3 30 30 0 27 -3 30 -30 30
-27 0 -30 -3 -30 -30z"/>
<path d="M2440 1920 l0 -50 45 0 45 0 0 50 0 50 -45 0 -45 0 0 -50z"/>
<path d="M3030 1955 c0 -8 7 -15 15 -15 8 0 15 7 15 15 0 8 -7 15 -15 15 -8 0
-15 -7 -15 -15z"/>
<path d="M3830 1926 c0 -33 2 -36 31 -36 28 0 30 2 27 33 -2 27 -8 33 -30 35
-26 3 -28 1 -28 -32z"/>
<path d="M942 1923 c2 -22 9 -29 31 -31 24 -3 27 0 27 27 0 28 -3 31 -31 31
-27 0 -30 -3 -27 -27z"/>
<path d="M2560 1920 c0 -27 3 -30 30 -30 27 0 30 3 30 30 0 27 -3 30 -30 30
-27 0 -30 -3 -30 -30z"/>
<path d="M3220 1935 c0 -8 7 -15 15 -15 8 0 15 7 15 15 0 8 -7 15 -15 15 -8 0
-15 -7 -15 -15z"/>
<path d="M380 1920 c0 -11 7 -20 15 -20 8 0 15 9 15 20 0 11 -7 20 -15 20 -8
0 -15 -9 -15 -20z"/>
<path d="M2652 1923 c2 -10 10 -18 18 -18 8 0 16 8 18 18 2 12 -3 17 -18 17
-15 0 -20 -5 -18 -17z"/>
<path d="M1770 1905 c0 -21 5 -25 30 -25 25 0 30 4 30 25 0 21 -5 25 -30 25
-25 0 -30 -4 -30 -25z"/>
<path d="M2870 1880 l0 -50 45 0 45 0 0 50 0 50 -45 0 -45 0 0 -50z"/>
<path d="M2340 1869 l0 -50 43 3 42 3 3 48 3 47 -45 0 -46 0 0 -51z"/>
<path d="M2990 1900 c0 -11 7 -20 15 -20 8 0 15 9 15 20 0 11 -7 20 -15 20 -8
0 -15 -9 -15 -20z"/>
<path d="M275 1900 c-8 -14 3 -30 21 -30 8 0 14 9 14 20 0 21 -24 28 -35 10z"/>
<path d="M822 1893 c5 -26 38 -29 38 -4 0 15 -6 21 -21 21 -14 0 -19 -5 -17
-17z"/>
<path d="M2000 1865 l0 -45 45 0 45 0 0 45 0 45 -45 0 -45 0 0 -45z"/>
<path d="M1930 1880 c0 -13 7 -20 20 -20 13 0 20 7 20 20 0 13 -7 20 -20 20
-13 0 -20 -7 -20 -20z"/>
<path d="M2267 1893 c-14 -13 -6 -33 13 -33 13 0 20 7 20 20 0 19 -20 27 -33
13z"/>
<path d="M580 1870 c0 -15 5 -20 18 -18 9 2 17 10 17 18 0 8 -8 16 -17 18 -13
2 -18 -3 -18 -18z"/>
<path d="M3365 1880 c-8 -14 3 -30 21 -30 8 0 14 9 14 20 0 21 -24 28 -35 10z"/>
<path d="M370 1865 c0 -8 7 -15 15 -15 8 0 15 7 15 15 0 8 -7 15 -15 15 -8 0
-15 -7 -15 -15z"/>
<path d="M510 1865 c0 -8 7 -15 15 -15 8 0 15 7 15 15 0 8 -7 15 -15 15 -8 0
-15 -7 -15 -15z"/>
<path d="M680 1850 c0 -28 3 -31 27 -28 22 2 28 8 28 28 0 20 -6 26 -28 28
-24 3 -27 0 -27 -28z"/>
<path d="M2690 1850 c0 -27 3 -30 30 -30 27 0 30 3 30 30 0 27 -3 30 -30 30
-27 0 -30 -3 -30 -30z"/>
<path d="M2800 1860 c0 -13 7 -20 20 -20 13 0 20 7 20 20 0 13 -7 20 -20 20
-13 0 -20 -7 -20 -20z"/>
<path d="M1742 1862 c-19 -3 -23 -9 -20 -30 2 -21 8 -27 28 -27 19 0 26 6 28
24 4 29 -6 38 -36 33z"/>
<path d="M2152 1833 c2 -22 9 -29 31 -31 24 -3 27 0 27 27 0 28 -3 31 -31 31
-27 0 -30 -3 -27 -27z"/>
<path d="M2620 1840 c0 -13 7 -20 20 -20 13 0 20 7 20 20 0 13 -7 20 -20 20
-13 0 -20 -7 -20 -20z"/>
<path d="M987 1844 c-14 -15 -6 -34 14 -34 14 0 19 5 17 17 -3 18 -20 27 -31
17z"/>
<path d="M2462 1833 c2 -10 10 -18 18 -18 8 0 16 8 18 18 2 12 -3 17 -18 17
-15 0 -20 -5 -18 -17z"/>
<path d="M2540 1825 c0 -20 5 -25 25 -25 20 0 25 5 25 25 0 20 -5 25 -25 25
-20 0 -25 -5 -25 -25z"/>
<path d="M760 1825 c0 -8 7 -15 15 -15 8 0 15 7 15 15 0 8 -7 15 -15 15 -8 0
-15 -7 -15 -15z"/>
<path d="M1134 1829 c-3 -6 -2 -15 4 -21 13 -13 32 -2 32 18 0 16 -26 19 -36
3z"/>
<path d="M1850 1811 c0 -28 3 -31 31 -31 27 0 30 3 27 28 -2 21 -9 28 -30 30
-25 3 -28 0 -28 -27z"/>
<path d="M2967 1834 c-14 -15 -6 -34 14 -34 14 0 19 5 17 17 -3 18 -20 27 -31
17z"/>
<path d="M3520 1825 c0 -8 9 -15 20 -15 11 0 20 7 20 15 0 8 -9 15 -20 15 -11
0 -20 -7 -20 -15z"/>
<path d="M870 1800 c0 -27 3 -30 30 -30 27 0 30 3 30 30 0 27 -3 30 -30 30
-27 0 -30 -3 -30 -30z"/>
<path d="M2260 1791 c0 -28 3 -31 31 -31 27 0 30 3 27 28 -2 21 -9 28 -30 30
-25 3 -28 0 -28 -27z"/>
<path d="M1795 1800 c-7 -12 2 -30 16 -30 5 0 9 9 9 20 0 21 -15 27 -25 10z"/>
<path d="M2810 1795 c0 -8 9 -15 20 -15 11 0 20 7 20 15 0 8 -9 15 -20 15 -11
0 -20 -7 -20 -15z"/>
<path d="M3050 1794 c0 -9 5 -14 12 -12 18 6 21 28 4 28 -9 0 -16 -7 -16 -16z"/>
<path d="M430 1780 c0 -11 7 -20 15 -20 8 0 15 9 15 20 0 11 -7 20 -15 20 -8
0 -15 -9 -15 -20z"/>
<path d="M1975 1792 c-3 -3 -5 -16 -5 -29 0 -19 5 -23 30 -23 25 0 30 4 30 24
0 17 -7 25 -25 28 -13 3 -27 3 -30 0z"/>
<path d="M2370 1750 l0 -50 45 0 45 0 0 50 0 50 -45 0 -45 0 0 -50z"/>
<path d="M3132 1773 c2 -22 9 -29 31 -31 24 -3 27 0 27 27 0 28 -3 31 -31 31
-27 0 -30 -3 -27 -27z"/>
<path d="M540 1755 c0 -34 2 -36 28 -33 23 3 27 8 27 33 0 25 -4 30 -27 33
-26 3 -28 1 -28 -33z"/>
<path d="M650 1775 c0 -8 7 -15 15 -15 8 0 15 7 15 15 0 8 -7 15 -15 15 -8 0
-15 -7 -15 -15z"/>
<path d="M765 1780 c-8 -14 3 -30 21 -30 8 0 14 9 14 20 0 21 -24 28 -35 10z"/>
<path d="M2114 1781 c-2 -2 -4 -24 -4 -48 l0 -43 51 0 50 0 -3 46 -3 47 -43 1
c-24 1 -46 -1 -48 -3z"/>
<path d="M1060 1749 c0 -27 3 -30 28 -27 21 2 28 9 30 31 3 24 0 27 -27 27
-28 0 -31 -3 -31 -31z"/>
<path d="M2670 1735 l0 -45 45 0 45 0 0 45 0 45 -45 0 -45 0 0 -45z"/>
<path d="M952 1753 c2 -10 10 -18 18 -18 8 0 16 8 18 18 2 12 -3 17 -18 17
-15 0 -20 -5 -18 -17z"/>
<path d="M2595 1760 c-8 -14 3 -30 21 -30 8 0 14 9 14 20 0 21 -24 28 -35 10z"/>
<path d="M3342 1753 c2 -10 10 -18 18 -18 8 0 16 8 18 18 2 12 -3 17 -18 17
-15 0 -20 -5 -18 -17z"/>
<path d="M1530 1710 l0 -50 45 0 45 0 0 50 0 50 -45 0 -45 0 0 -50z"/>
<path d="M1150 1735 c0 -8 7 -15 15 -15 8 0 15 7 15 15 0 8 -7 15 -15 15 -8 0
-15 -7 -15 -15z"/>
<path d="M1660 1725 c0 -8 9 -15 20 -15 11 0 20 7 20 15 0 8 -9 15 -20 15 -11
0 -20 -7 -20 -15z"/>
<path d="M1762 1723 c2 -10 10 -18 18 -18 8 0 16 8 18 18 2 12 -3 17 -18 17
-15 0 -20 -5 -18 -17z"/>
<path d="M687 1724 c-14 -15 -6 -34 14 -34 14 0 19 5 17 17 -3 18 -20 27 -31
17z"/>
<path d="M1443 1723 c-21 -7 -15 -33 7 -33 11 0 20 6 20 14 0 18 -11 25 -27
19z"/>
<path d="M830 1690 c0 -27 3 -30 30 -30 27 0 30 3 30 30 0 27 -3 30 -30 30
-27 0 -30 -3 -30 -30z"/>
<path d="M2280 1705 c0 -8 9 -15 20 -15 11 0 20 7 20 15 0 8 -9 15 -20 15 -11
0 -20 -7 -20 -15z"/>
<path d="M2522 1693 c5 -26 38 -29 38 -4 0 15 -6 21 -21 21 -14 0 -19 -5 -17
-17z"/>
<path d="M2970 1690 c0 -15 5 -20 18 -18 9 2 17 10 17 18 0 8 -8 16 -17 18
-13 2 -18 -3 -18 -18z"/>
<path d="M1695 1690 c-8 -14 3 -30 21 -30 8 0 14 9 14 20 0 21 -24 28 -35 10z"/>
<path d="M3250 1675 c0 -20 5 -25 25 -25 20 0 25 5 25 25 0 20 -5 25 -25 25
-20 0 -25 -5 -25 -25z"/>
<path d="M990 1675 c0 -8 9 -15 20 -15 11 0 20 7 20 15 0 8 -9 15 -20 15 -11
0 -20 -7 -20 -15z"/>
<path d="M1910 1675 c0 -8 7 -15 15 -15 8 0 15 7 15 15 0 8 -7 15 -15 15 -8 0
-15 -7 -15 -15z"/>
<path d="M1390 1615 c0 -8 7 -15 15 -15 8 0 15 7 15 15 0 8 -7 15 -15 15 -8 0
-15 -7 -15 -15z"/>
<path d="M1873 1510 c-54 -32 -68 -71 -68 -185 0 -82 4 -106 20 -135 58 -99
189 -82 227 29 19 57 15 178 -9 232 -32 73 -106 98 -170 59z m121 -63 c18 -24
21 -43 21 -122 0 -80 -3 -98 -21 -122 -18 -23 -29 -28 -65 -28 -40 0 -46 3
-62 35 -25 48 -21 203 6 244 16 23 24 27 59 24 31 -2 46 -10 62 -31z"/>
<path d="M2175 1521 c-57 -25 -85 -91 -85 -200 1 -129 47 -196 136 -196 52 0
99 39 114 94 14 52 12 186 -4 224 -28 66 -104 103 -161 78z m99 -60 c28 -31
42 -120 28 -192 -14 -77 -33 -99 -84 -99 -32 0 -41 5 -57 31 -38 62 -34 217 6
261 22 24 84 24 107 -1z"/>
<path d="M1620 1498 c-14 -11 -35 -28 -48 -38 -14 -11 -20 -24 -16 -34 9 -23
24 -20 56 11 l28 27 0 -167 0 -167 25 0 25 0 0 195 0 195 -22 0 c-13 -1 -34
-10 -48 -22z"/>
<path d="M2456 1477 c-43 -38 -47 -44 -32 -56 14 -12 20 -11 39 5 12 11 25 24
29 29 4 6 8 -65 8 -157 l0 -168 25 0 25 0 0 195 0 195 -22 0 c-13 0 -45 -20
-72 -43z"/>
<path d="M3536 976 c-152 -57 -178 -270 -44 -363 46 -31 126 -42 183 -23 162
54 183 295 31 373 -49 26 -120 31 -170 13z m165 -63 c60 -51 75 -132 39 -211
-35 -77 -150 -105 -219 -54 -89 66 -84 227 7 277 15 8 53 14 84 15 47 0 62 -4
89 -27z"/>
<path d="M4764 976 c-43 -19 -64 -53 -64 -102 0 -53 32 -87 103 -110 29 -9 60
-23 70 -32 17 -15 23 -58 9 -78 -26 -39 -104 -41 -137 -4 -17 19 -19 19 -37 4
-51 -47 97 -98 172 -59 38 20 70 66 70 102 0 39 -52 88 -115 109 -28 9 -58 24
-67 32 -24 20 -23 65 1 86 26 23 86 23 112 0 18 -16 21 -16 35 -2 20 20 11 36
-32 54 -41 17 -80 17 -120 0z"/>
<path d="M1650 785 c0 -188 1 -195 20 -195 19 0 20 7 20 90 l0 90 60 0 c99 0
140 32 140 107 0 73 -48 103 -166 103 l-74 0 0 -195z m139 145 c40 -11 51 -24
51 -62 0 -38 -33 -58 -97 -58 l-53 0 0 58 c0 32 3 62 7 65 9 10 53 9 92 -3z"/>
<path d="M2011 958 c-5 -13 -43 -101 -84 -195 l-76 -173 28 0 c23 0 30 7 48
50 l21 50 95 0 94 0 21 -50 c17 -42 25 -50 46 -50 15 0 26 3 25 8 0 4 -37 90
-82 192 -68 153 -86 186 -105 188 -15 2 -25 -3 -31 -20z m37 -226 c-39 -2 -73
-1 -76 2 -3 3 12 46 33 96 l38 90 37 -92 38 -93 -70 -3z"/>
<path d="M2180 960 c0 -18 6 -20 65 -20 l65 0 0 -175 0 -175 25 0 25 0 0 175
0 174 63 3 c47 2 62 7 62 18 0 13 -25 15 -152 18 -148 2 -153 2 -153 -18z"/>
<path d="M2520 785 l0 -195 25 0 c25 0 25 1 25 90 l0 90 29 0 c27 0 35 -9 81
-90 46 -81 54 -90 81 -90 l29 0 -54 89 -54 88 32 14 c19 9 38 29 50 52 16 34
17 42 4 75 -20 53 -63 72 -165 72 l-83 0 0 -195z m188 131 c22 -22 18 -67 -8
-88 -15 -12 -39 -18 -76 -18 l-54 0 0 66 0 67 62 -7 c34 -3 69 -12 76 -20z"/>
<path d="M2830 785 l0 -195 25 0 25 0 0 195 0 195 -25 0 -25 0 0 -195z"/>
<path d="M2960 785 l0 -195 25 0 25 0 0 153 1 152 64 -150 c39 -93 69 -151 79
-153 9 -2 16 -2 16 0 0 3 29 74 65 159 l65 154 0 -157 0 -158 25 0 25 0 0 195
0 195 -34 0 c-34 0 -34 -1 -79 -108 -25 -59 -53 -126 -62 -150 -10 -24 -21
-40 -25 -35 -4 4 -33 72 -65 151 l-58 142 -33 0 -34 0 0 -195z"/>
<path d="M3870 785 l0 -196 23 3 c22 3 22 4 22 193 0 189 0 190 -22 193 l-23
3 0 -196z"/>
<path d="M4000 784 l0 -195 23 3 c22 3 22 5 22 161 0 86 0 157 0 157 0 0 50
-72 110 -160 97 -140 113 -159 138 -160 l27 0 0 195 c0 188 -1 195 -20 195
-18 0 -20 -8 -22 -159 l-3 -159 -110 159 c-96 138 -113 158 -137 158 l-28 1 0
-196z"/>
<path d="M4410 785 l0 -195 125 0 c118 0 125 1 125 20 0 19 -7 20 -105 20
l-105 0 0 70 0 70 95 0 c88 0 95 1 95 20 0 19 -7 20 -95 20 l-95 0 0 65 0 65
100 0 c93 0 100 1 100 20 0 19 -7 20 -120 20 l-120 0 0 -195z"/>
</g>
</svg>
